<svg width="12" height="12" viewBox="0 0 12 12" fill="none" xmlns="http://www.w3.org/2000/svg">
<path d="M1.20904 5.11563C0.982876 5.11626 0.761517 5.18091 0.570568 5.3021C0.379619 5.42329 0.226884 5.59607 0.130033 5.80044C0.0331824 6.00482 -0.00382637 6.23244 0.0232886 6.45697C0.0504035 6.6815 0.140534 6.89376 0.283253 7.0692L3.32568 10.7962C3.43416 10.9309 3.57321 11.0377 3.73128 11.1079C3.88936 11.1781 4.06189 11.2095 4.23456 11.1996C4.60384 11.1798 4.93724 10.9822 5.14981 10.6574L11.4697 0.479228C11.4707 0.47754 11.4718 0.475852 11.4729 0.474188C11.5322 0.38314 11.513 0.202706 11.3906 0.0893548C11.357 0.0582272 11.3173 0.0343127 11.2741 0.0190838C11.2309 0.00385486 11.185 -0.00236592 11.1393 0.000804658C11.0936 0.00397524 11.049 0.0164701 11.0083 0.0375195C10.9676 0.0585689 10.9317 0.0877272 10.9027 0.123199C10.9004 0.125988 10.8981 0.128734 10.8957 0.131439L4.52197 7.33277C4.49771 7.36018 4.46826 7.38249 4.43531 7.39841C4.40236 7.41433 4.36658 7.42355 4.33003 7.42553C4.29349 7.42751 4.25692 7.4222 4.22245 7.40992C4.18798 7.39765 4.15629 7.37864 4.12922 7.35402L2.01391 5.42907C1.79421 5.22768 1.50707 5.11585 1.20904 5.11563Z" fill="#FD7351"/>
</svg>
