<svg width="50" height="50" viewBox="0 0 50 50" fill="none" xmlns="http://www.w3.org/2000/svg">
<g clip-path="url(#clip0_139_269)">
<path d="M46.2256 0H29.9806C29.1716 0 28.5157 0.655859 28.5157 1.46484V8.19902C28.5157 8.77676 28.8554 9.30059 29.3828 9.53633C29.9103 9.77217 30.5271 9.67588 30.9576 9.29033C31.3464 8.94238 31.8484 8.76143 32.3728 8.78252C33.4079 8.82344 34.2494 9.66641 34.2885 10.7016C34.3093 11.2519 34.1113 11.7724 33.7311 12.1673C33.3505 12.5626 32.8388 12.7803 32.29 12.7803C31.7979 12.7804 31.3245 12.5994 30.9575 12.2708C30.5271 11.8856 29.9103 11.789 29.3827 12.0249C28.8553 12.2606 28.5156 12.7845 28.5156 13.3622V20.0195C28.5156 20.8285 29.1715 21.4844 29.9805 21.4844H34.3619C34.303 21.8252 34.2798 22.1744 34.2938 22.5276C34.3948 25.0819 36.4751 27.1586 39.0297 27.2551C39.0941 27.2575 39.1583 27.2587 39.2226 27.2587C40.5042 27.2587 41.7107 26.7733 42.6382 25.8805C43.6124 24.9425 44.1488 23.6812 44.1488 22.3293C44.1488 22.0441 44.1242 21.7616 44.0761 21.4845H48.5353C49.3442 21.4845 50.0001 20.8286 50.0001 20.0196V3.77451C50.0001 1.69326 48.3068 0 46.2256 0ZM47.0704 18.5547H41.8011C41.2232 18.5547 40.6995 18.8943 40.4638 19.4219C40.228 19.9493 40.3243 20.5662 40.7098 20.9967C41.0383 21.3636 41.2192 21.8369 41.2192 22.3293C41.2192 22.8777 41.0016 23.3895 40.6063 23.7701C40.2114 24.1504 39.6928 24.3475 39.1405 24.3275C38.1053 24.2885 37.2624 23.4469 37.2215 22.4119C37.2008 21.8882 37.3812 21.3855 37.7292 20.9967C38.1146 20.5662 38.2109 19.9493 37.9752 19.4219C37.7395 18.8944 37.2154 18.5547 36.6377 18.5547H31.4454V15.6374C31.7225 15.6854 32.0048 15.7101 32.2897 15.7101H32.2903C33.6424 15.7101 34.9036 15.1736 35.8415 14.1994C36.7792 13.2257 37.2674 11.9441 37.2161 10.591C37.1196 8.03643 35.043 5.95615 32.4885 5.85518C32.1349 5.84092 31.786 5.86455 31.4454 5.92334V2.92969H46.2256C46.6915 2.92969 47.0704 3.30869 47.0704 3.77451V18.5547Z" fill="#5A76FF"/>
<path d="M38.5742 28.5156H31.84C31.2622 28.5156 30.7385 28.8553 30.5027 29.3828C30.267 29.9103 30.3633 30.5271 30.7487 30.9576C31.0772 31.3245 31.2582 31.7979 31.2582 32.2902C31.2582 32.8387 31.0405 33.3504 30.6452 33.7311C30.2503 34.1113 29.7323 34.3079 29.1795 34.2885C28.1442 34.2494 27.3014 33.4078 27.2604 32.3728C27.2397 31.8491 27.4201 31.3465 27.7682 30.9576C28.1535 30.5271 28.2499 29.9103 28.0142 29.3828C27.7784 28.8554 27.2544 28.5156 26.6767 28.5156H21.4844V25.599C21.8252 25.6578 22.1745 25.6812 22.5275 25.6671C25.0819 25.5661 27.1586 23.4858 27.2551 20.9312C27.3063 19.5781 26.8181 18.2966 25.8805 17.3229C24.9425 16.3486 23.6812 15.8122 22.3293 15.8122C22.0441 15.8122 21.7616 15.8368 21.4845 15.885V11.4258C21.4845 10.6168 20.8286 9.96094 20.0196 9.96094H3.77451C1.69326 9.96094 0 11.6542 0 13.7354V46.2254C0 48.3067 1.69326 50 3.77451 50H36.2645C38.3458 50 40.0391 48.3067 40.0391 46.2255V29.9805C40.0391 29.1715 39.3832 28.5156 38.5742 28.5156ZM2.92969 13.7354C2.92969 13.2695 3.30869 12.8906 3.77451 12.8906H18.5547V18.16C18.5547 18.7378 18.8943 19.2615 19.4219 19.4973C19.9492 19.7332 20.5663 19.6367 20.9967 19.2513C21.3636 18.9228 21.8369 18.7418 22.3293 18.7418C22.8777 18.7418 23.3895 18.9595 23.7701 19.3548C24.1504 19.7497 24.3483 20.2702 24.3275 20.8205C24.2885 21.8557 23.4469 22.6986 22.4118 22.7396C21.8883 22.7602 21.3855 22.5799 20.9967 22.2318C20.5662 21.8466 19.9495 21.75 19.4219 21.9858C18.8944 22.2216 18.5548 22.7454 18.5548 23.3231V28.5156H15.6375C15.6855 28.2385 15.7102 27.956 15.7102 27.6708C15.7102 26.3187 15.1737 25.0575 14.1995 24.1196C13.2258 23.1819 11.9435 22.6921 10.5911 22.745C8.03652 22.8415 5.95625 24.9182 5.85527 27.4726C5.84131 27.8256 5.86465 28.1749 5.92334 28.5157H2.92969V13.7354ZM2.92969 46.2255V31.4453H8.19902C8.77686 31.4453 9.30059 31.1057 9.53633 30.5781C9.77207 30.0507 9.67578 29.4338 9.29023 29.0033C8.94219 28.6145 8.76182 28.1119 8.78252 27.5883C8.82344 26.5531 9.66641 25.7116 10.7016 25.6726C11.2506 25.6537 11.7723 25.8496 12.1673 26.23C12.5626 26.6105 12.7803 27.1223 12.7803 27.6708C12.7803 28.1633 12.5993 28.6365 12.2708 29.0034C11.8855 29.4339 11.7892 30.0508 12.0249 30.5782C12.2606 31.1057 12.7847 31.4453 13.3624 31.4453H18.5547V34.3619C18.2139 34.3031 17.8646 34.2798 17.5115 34.2938C14.9571 34.3948 12.8805 36.4751 12.784 39.0297C12.7328 40.3828 13.221 41.6644 14.1586 42.6381C15.0966 43.6123 16.3578 44.1487 17.7098 44.1487C17.9949 44.1487 18.2774 44.1241 18.5546 44.076V47.0703H3.77451C3.30869 47.0703 2.92969 46.6913 2.92969 46.2255ZM37.1094 46.2255C37.1094 46.6914 36.7304 47.0703 36.2646 47.0703H21.4844V41.801C21.4844 41.2231 21.1447 40.6994 20.6172 40.4637C20.0898 40.2278 19.4729 40.3243 19.0424 40.7097C18.6755 41.0382 18.2021 41.2191 17.7098 41.2191C17.1613 41.2191 16.6496 41.0015 16.2689 40.6062C15.8887 40.2112 15.6907 39.6907 15.7115 39.1404C15.7506 38.1053 16.5922 37.2623 17.6272 37.2214C18.1496 37.2007 18.6534 37.3811 19.0424 37.7291C19.4729 38.1145 20.0896 38.211 20.6172 37.9751C21.1446 37.7394 21.4843 37.2155 21.4843 36.6378V31.4453H24.4009C24.3421 31.786 24.3188 32.1354 24.3328 32.4885C24.4338 35.0429 26.5141 37.1195 29.0687 37.216C30.4212 37.2686 31.7033 36.779 32.6771 35.8414C33.6513 34.9034 34.1877 33.6422 34.1877 32.2902C34.1877 32.0051 34.1631 31.7226 34.1149 31.4454H37.1094V46.2255Z" fill="#5A76FF"/>
</g>
<defs>
<clipPath id="clip0_139_269">
<rect width="50" height="50" fill="white"/>
</clipPath>
</defs>
</svg>
