<svg xmlns="http://www.w3.org/2000/svg" xmlns:xlink="http://www.w3.org/1999/xlink" width="1080" zoomAndPan="magnify" viewBox="0 0 810 809.999993" height="1080" preserveAspectRatio="xMidYMid meet" version="1.0"><defs><clipPath id="66f8298e8a"><path d="M 370.621094 370.621094 L 439.378906 370.621094 L 439.378906 439.378906 L 370.621094 439.378906 Z M 370.621094 370.621094 " clip-rule="nonzero"/></clipPath><clipPath id="af375eef57"><path d="M 405 370.621094 C 386.011719 370.621094 370.621094 386.011719 370.621094 405 C 370.621094 423.988281 386.011719 439.378906 405 439.378906 C 423.988281 439.378906 439.378906 423.988281 439.378906 405 C 439.378906 386.011719 423.988281 370.621094 405 370.621094 Z M 405 370.621094 " clip-rule="nonzero"/></clipPath></defs><path fill="#494c4f" d="M 405 0 C 398.371094 0 391.746094 0.164062 385.128906 0.488281 C 378.507812 0.8125 371.898438 1.300781 365.304688 1.949219 C 358.707031 2.601562 352.128906 3.410156 345.574219 4.382812 C 339.019531 5.355469 332.488281 6.488281 325.988281 7.78125 C 319.488281 9.074219 313.023438 10.527344 306.59375 12.136719 C 300.164062 13.746094 293.777344 15.515625 287.433594 17.4375 C 281.09375 19.363281 274.800781 21.441406 268.558594 23.675781 C 262.320312 25.90625 256.136719 28.292969 250.011719 30.828125 C 243.890625 33.367188 237.832031 36.050781 231.839844 38.882812 C 225.847656 41.71875 219.929688 44.699219 214.085938 47.820312 C 208.238281 50.945312 202.472656 54.210938 196.789062 57.621094 C 191.101562 61.027344 185.503906 64.574219 179.992188 68.253906 C 174.484375 71.9375 169.066406 75.753906 163.742188 79.699219 C 158.417969 83.648438 153.195312 87.726562 148.070312 91.929688 C 142.945312 96.136719 137.929688 100.464844 133.019531 104.914062 C 128.109375 109.367188 123.308594 113.933594 118.621094 118.621094 C 113.933594 123.308594 109.367188 128.109375 104.914062 133.019531 C 100.464844 137.929688 96.136719 142.945312 91.929688 148.070312 C 87.726562 153.195312 83.648438 158.417969 79.699219 163.742188 C 75.753906 169.066406 71.9375 174.484375 68.253906 179.992188 C 64.574219 185.503906 61.027344 191.101562 57.621094 196.789062 C 54.210938 202.472656 50.945312 208.238281 47.820312 214.085938 C 44.699219 219.929688 41.71875 225.847656 38.882812 231.839844 C 36.050781 237.832031 33.367188 243.890625 30.828125 250.011719 C 28.292969 256.136719 25.90625 262.320312 23.675781 268.558594 C 21.441406 274.800781 19.363281 281.09375 17.4375 287.433594 C 15.515625 293.777344 13.746094 300.164062 12.136719 306.59375 C 10.527344 313.023438 9.074219 319.488281 7.78125 325.988281 C 6.488281 332.488281 5.355469 339.019531 4.382812 345.574219 C 3.410156 352.128906 2.601562 358.707031 1.949219 365.304688 C 1.300781 371.898438 0.8125 378.507812 0.488281 385.128906 C 0.164062 391.746094 0 398.371094 0 405 C 0 411.628906 0.164062 418.253906 0.488281 424.871094 C 0.8125 431.492188 1.300781 438.101562 1.949219 444.695312 C 2.601562 451.292969 3.410156 457.871094 4.382812 464.425781 C 5.355469 470.980469 6.488281 477.511719 7.78125 484.011719 C 9.074219 490.511719 10.527344 496.976562 12.136719 503.40625 C 13.746094 509.835938 15.515625 516.222656 17.4375 522.566406 C 19.363281 528.90625 21.441406 535.199219 23.675781 541.441406 C 25.90625 547.679688 28.292969 553.863281 30.828125 559.988281 C 33.367188 566.109375 36.050781 572.167969 38.882812 578.160156 C 41.71875 584.152344 44.699219 590.070312 47.820312 595.914062 C 50.945312 601.761719 54.210938 607.527344 57.621094 613.210938 C 61.027344 618.898438 64.574219 624.496094 68.253906 630.007812 C 71.9375 635.515625 75.753906 640.933594 79.699219 646.257812 C 83.648438 651.582031 87.726562 656.804688 91.929688 661.929688 C 96.136719 667.054688 100.464844 672.070312 104.914062 676.980469 C 109.367188 681.890625 113.933594 686.691406 118.621094 691.378906 C 123.308594 696.066406 128.109375 700.632812 133.019531 705.085938 C 137.929688 709.535156 142.945312 713.863281 148.070312 718.070312 C 153.195312 722.273438 158.417969 726.351562 163.742188 730.300781 C 169.066406 734.246094 174.484375 738.0625 179.992188 741.746094 C 185.503906 745.425781 191.101562 748.972656 196.789062 752.378906 C 202.472656 755.789062 208.238281 759.054688 214.085938 762.179688 C 219.929688 765.300781 225.847656 768.28125 231.839844 771.117188 C 237.832031 773.949219 243.890625 776.632812 250.011719 779.171875 C 256.136719 781.707031 262.320312 784.09375 268.558594 786.324219 C 274.800781 788.558594 281.09375 790.636719 287.433594 792.5625 C 293.777344 794.484375 300.164062 796.253906 306.59375 797.863281 C 313.023438 799.472656 319.488281 800.925781 325.988281 802.21875 C 332.488281 803.511719 339.019531 804.644531 345.574219 805.617188 C 352.128906 806.589844 358.707031 807.398438 365.304688 808.050781 C 371.898438 808.699219 378.507812 809.1875 385.128906 809.511719 C 391.746094 809.835938 398.371094 810 405 810 C 411.628906 810 418.253906 809.835938 424.871094 809.511719 C 431.492188 809.1875 438.101562 808.699219 444.695312 808.050781 C 451.292969 807.398438 457.871094 806.589844 464.425781 805.617188 C 470.980469 804.644531 477.511719 803.511719 484.011719 802.21875 C 490.511719 800.925781 496.976562 799.472656 503.40625 797.863281 C 509.835938 796.253906 516.222656 794.484375 522.566406 792.5625 C 528.90625 790.636719 535.199219 788.558594 541.441406 786.324219 C 547.679688 784.09375 553.863281 781.707031 559.988281 779.171875 C 566.109375 776.632812 572.167969 773.949219 578.160156 771.117188 C 584.152344 768.28125 590.070312 765.300781 595.914062 762.179688 C 601.761719 759.054688 607.527344 755.789062 613.210938 752.378906 C 618.898438 748.972656 624.496094 745.425781 630.007812 741.746094 C 635.515625 738.0625 640.933594 734.246094 646.257812 730.300781 C 651.582031 726.351562 656.804688 722.273438 661.929688 718.070312 C 667.054688 713.863281 672.070312 709.535156 676.980469 705.085938 C 681.890625 700.632812 686.691406 696.066406 691.378906 691.378906 C 696.066406 686.691406 700.632812 681.890625 705.085938 676.980469 C 709.535156 672.070312 713.863281 667.054688 718.070312 661.929688 C 722.273438 656.804688 726.351562 651.582031 730.300781 646.257812 C 734.246094 640.933594 738.0625 635.515625 741.746094 630.007812 C 745.425781 624.496094 748.972656 618.898438 752.378906 613.210938 C 755.789062 607.527344 759.054688 601.761719 762.179688 595.914062 C 765.300781 590.070312 768.28125 584.152344 771.117188 578.160156 C 773.949219 572.167969 776.632812 566.109375 779.171875 559.988281 C 781.707031 553.863281 784.09375 547.679688 786.324219 541.441406 C 788.558594 535.199219 790.636719 528.90625 792.5625 522.566406 C 794.484375 516.222656 796.253906 509.835938 797.863281 503.40625 C 799.472656 496.976562 800.925781 490.511719 802.21875 484.011719 C 803.511719 477.511719 804.644531 470.980469 805.617188 464.425781 C 806.589844 457.871094 807.398438 451.292969 808.050781 444.695312 C 808.699219 438.101562 809.1875 431.492188 809.511719 424.871094 C 809.835938 418.253906 810 411.628906 810 405 C 810 398.371094 809.835938 391.746094 809.511719 385.128906 C 809.1875 378.507812 808.699219 371.898438 808.050781 365.304688 C 807.398438 358.707031 806.589844 352.128906 805.617188 345.574219 C 804.644531 339.019531 803.511719 332.488281 802.21875 325.988281 C 800.925781 319.488281 799.472656 313.023438 797.863281 306.59375 C 796.253906 300.164062 794.484375 293.777344 792.5625 287.433594 C 790.636719 281.09375 788.558594 274.800781 786.324219 268.558594 C 784.09375 262.320312 781.707031 256.136719 779.171875 250.011719 C 776.632812 243.890625 773.949219 237.832031 771.117188 231.839844 C 768.28125 225.847656 765.300781 219.929688 762.179688 214.085938 C 759.054688 208.238281 755.789062 202.472656 752.378906 196.789062 C 748.972656 191.101562 745.425781 185.503906 741.746094 179.992188 C 738.0625 174.484375 734.246094 169.066406 730.300781 163.742188 C 726.351562 158.417969 722.273438 153.195312 718.070312 148.070312 C 713.863281 142.945312 709.535156 137.929688 705.085938 133.019531 C 700.632812 128.109375 696.066406 123.308594 691.378906 118.621094 C 686.691406 113.933594 681.890625 109.367188 676.980469 104.914062 C 672.070312 100.464844 667.054688 96.136719 661.929688 91.929688 C 656.804688 87.726562 651.582031 83.648438 646.257812 79.699219 C 640.933594 75.753906 635.515625 71.9375 630.007812 68.253906 C 624.496094 64.574219 618.898438 61.027344 613.210938 57.621094 C 607.527344 54.210938 601.761719 50.945312 595.914062 47.820312 C 590.070312 44.699219 584.152344 41.71875 578.160156 38.882812 C 572.167969 36.050781 566.109375 33.367188 559.988281 30.828125 C 553.863281 28.292969 547.679688 25.90625 541.441406 23.675781 C 535.199219 21.441406 528.90625 19.363281 522.566406 17.4375 C 516.222656 15.515625 509.835938 13.746094 503.40625 12.136719 C 496.976562 10.527344 490.511719 9.074219 484.011719 7.78125 C 477.511719 6.488281 470.980469 5.355469 464.425781 4.382812 C 457.871094 3.410156 451.292969 2.601562 444.695312 1.949219 C 438.101562 1.300781 431.492188 0.8125 424.871094 0.488281 C 418.253906 0.164062 411.628906 0 405 0 Z M 405 757.742188 C 399.226562 757.742188 393.457031 757.601562 387.691406 757.316406 C 381.925781 757.035156 376.171875 756.609375 370.425781 756.042969 C 364.679688 755.476562 358.953125 754.769531 353.242188 753.925781 C 347.53125 753.078125 341.84375 752.089844 336.183594 750.964844 C 330.519531 749.835938 324.890625 748.574219 319.289062 747.171875 C 313.691406 745.769531 308.128906 744.230469 302.605469 742.554688 C 297.082031 740.878906 291.601562 739.066406 286.164062 737.121094 C 280.730469 735.175781 275.34375 733.101562 270.011719 730.890625 C 264.679688 728.683594 259.402344 726.34375 254.183594 723.875 C 248.964844 721.40625 243.808594 718.8125 238.71875 716.089844 C 233.628906 713.371094 228.605469 710.523438 223.65625 707.558594 C 218.703125 704.589844 213.828125 701.5 209.027344 698.292969 C 204.226562 695.085938 199.507812 691.765625 194.871094 688.324219 C 190.234375 684.886719 185.683594 681.335938 181.222656 677.671875 C 176.761719 674.011719 172.390625 670.242188 168.113281 666.363281 C 163.835938 662.488281 159.65625 658.507812 155.574219 654.425781 C 151.492188 650.34375 147.511719 646.164062 143.636719 641.886719 C 139.757812 637.609375 135.988281 633.238281 132.328125 628.777344 C 128.664062 624.316406 125.113281 619.765625 121.675781 615.128906 C 118.234375 610.492188 114.914062 605.773438 111.707031 600.972656 C 108.5 596.171875 105.410156 591.296875 102.441406 586.34375 C 99.476562 581.394531 96.628906 576.371094 93.910156 571.28125 C 91.1875 566.191406 88.59375 561.035156 86.125 555.816406 C 83.65625 550.597656 81.316406 545.320312 79.109375 539.988281 C 76.898438 534.65625 74.824219 529.269531 72.878906 523.835938 C 70.933594 518.398438 69.121094 512.917969 67.445312 507.394531 C 65.769531 501.871094 64.230469 496.308594 62.828125 490.710938 C 61.425781 485.109375 60.164062 479.476562 59.035156 473.816406 C 57.910156 468.15625 56.921875 462.46875 56.074219 456.757812 C 55.230469 451.046875 54.523438 445.320312 53.957031 439.574219 C 53.390625 433.828125 52.964844 428.074219 52.683594 422.308594 C 52.398438 416.542969 52.257812 410.773438 52.257812 405 C 52.257812 399.226562 52.398438 393.457031 52.683594 387.691406 C 52.964844 381.925781 53.390625 376.171875 53.957031 370.425781 C 54.523438 364.679688 55.230469 358.953125 56.074219 353.242188 C 56.921875 347.53125 57.910156 341.84375 59.035156 336.183594 C 60.164062 330.519531 61.425781 324.890625 62.828125 319.289062 C 64.230469 313.691406 65.769531 308.128906 67.445312 302.605469 C 69.121094 297.082031 70.933594 291.601562 72.878906 286.164062 C 74.824219 280.730469 76.898438 275.34375 79.109375 270.011719 C 81.316406 264.679688 83.65625 259.402344 86.125 254.183594 C 88.59375 248.964844 91.1875 243.808594 93.910156 238.71875 C 96.628906 233.628906 99.476562 228.605469 102.441406 223.65625 C 105.410156 218.703125 108.5 213.828125 111.707031 209.027344 C 114.914062 204.226562 118.234375 199.507812 121.675781 194.871094 C 125.113281 190.234375 128.664062 185.683594 132.328125 181.222656 C 135.988281 176.761719 139.757812 172.390625 143.636719 168.113281 C 147.511719 163.835938 151.492188 159.65625 155.574219 155.574219 C 159.65625 151.492188 163.835938 147.511719 168.113281 143.636719 C 172.390625 139.757812 176.761719 135.988281 181.222656 132.328125 C 185.683594 128.664062 190.234375 125.113281 194.871094 121.675781 C 199.507812 118.234375 204.226562 114.914062 209.027344 111.707031 C 213.828125 108.5 218.703125 105.410156 223.65625 102.441406 C 228.605469 99.476562 233.628906 96.628906 238.71875 93.910156 C 243.808594 91.1875 248.964844 88.59375 254.183594 86.125 C 259.402344 83.65625 264.679688 81.316406 270.011719 79.109375 C 275.34375 76.898438 280.730469 74.824219 286.164062 72.878906 C 291.601562 70.933594 297.082031 69.121094 302.605469 67.445312 C 308.128906 65.769531 313.691406 64.230469 319.289062 62.828125 C 324.890625 61.425781 330.519531 60.164062 336.183594 59.035156 C 341.84375 57.910156 347.53125 56.921875 353.242188 56.074219 C 358.953125 55.230469 364.679688 54.523438 370.425781 53.957031 C 376.171875 53.390625 381.925781 52.964844 387.691406 52.683594 C 393.457031 52.398438 399.226562 52.257812 405 52.257812 C 410.773438 52.257812 416.542969 52.398438 422.308594 52.683594 C 428.074219 52.964844 433.828125 53.390625 439.574219 53.957031 C 445.320312 54.523438 451.046875 55.230469 456.757812 56.074219 C 462.46875 56.921875 468.15625 57.910156 473.816406 59.035156 C 479.476562 60.164062 485.109375 61.425781 490.710938 62.828125 C 496.308594 64.230469 501.871094 65.769531 507.394531 67.445312 C 512.917969 69.121094 518.398438 70.933594 523.835938 72.878906 C 529.269531 74.824219 534.65625 76.898438 539.988281 79.109375 C 545.320312 81.316406 550.597656 83.65625 555.816406 86.125 C 561.035156 88.59375 566.191406 91.1875 571.28125 93.910156 C 576.371094 96.628906 581.394531 99.476562 586.34375 102.441406 C 591.296875 105.410156 596.171875 108.5 600.972656 111.707031 C 605.773438 114.914062 610.492188 118.234375 615.128906 121.675781 C 619.765625 125.113281 624.316406 128.664062 628.777344 132.328125 C 633.238281 135.988281 637.609375 139.757812 641.886719 143.636719 C 646.164062 147.511719 650.34375 151.492188 654.425781 155.574219 C 658.507812 159.65625 662.488281 163.835938 666.363281 168.113281 C 670.242188 172.390625 674.011719 176.761719 677.671875 181.222656 C 681.335938 185.683594 684.886719 190.234375 688.324219 194.871094 C 691.765625 199.507812 695.085938 204.226562 698.292969 209.027344 C 701.5 213.828125 704.589844 218.703125 707.558594 223.65625 C 710.523438 228.605469 713.371094 233.628906 716.089844 238.71875 C 718.8125 243.808594 721.40625 248.964844 723.875 254.183594 C 726.34375 259.402344 728.683594 264.679688 730.890625 270.011719 C 733.101562 275.34375 735.175781 280.730469 737.121094 286.164062 C 739.066406 291.601562 740.878906 297.082031 742.554688 302.605469 C 744.230469 308.128906 745.769531 313.691406 747.171875 319.289062 C 748.574219 324.890625 749.835938 330.519531 750.964844 336.183594 C 752.089844 341.84375 753.078125 347.53125 753.925781 353.242188 C 754.769531 358.953125 755.476562 364.679688 756.042969 370.425781 C 756.609375 376.171875 757.035156 381.925781 757.316406 387.691406 C 757.601562 393.457031 757.742188 399.226562 757.742188 405 C 757.742188 410.773438 757.601562 416.542969 757.316406 422.308594 C 757.035156 428.074219 756.609375 433.828125 756.042969 439.574219 C 755.476562 445.320312 754.769531 451.046875 753.925781 456.757812 C 753.078125 462.46875 752.089844 468.15625 750.964844 473.816406 C 749.835938 479.476562 748.574219 485.109375 747.171875 490.710938 C 745.769531 496.308594 744.230469 501.871094 742.554688 507.394531 C 740.878906 512.917969 739.066406 518.398438 737.121094 523.835938 C 735.175781 529.269531 733.101562 534.65625 730.890625 539.988281 C 728.683594 545.320312 726.34375 550.597656 723.875 555.816406 C 721.40625 561.035156 718.8125 566.191406 716.089844 571.28125 C 713.371094 576.371094 710.523438 581.394531 707.558594 586.34375 C 704.589844 591.296875 701.5 596.171875 698.292969 600.972656 C 695.085938 605.773438 691.765625 610.492188 688.324219 615.128906 C 684.886719 619.765625 681.335938 624.316406 677.671875 628.777344 C 674.011719 633.238281 670.242188 637.609375 666.363281 641.886719 C 662.488281 646.164062 658.507812 650.34375 654.425781 654.425781 C 650.34375 658.507812 646.164062 662.488281 641.886719 666.363281 C 637.609375 670.242188 633.238281 674.011719 628.777344 677.671875 C 624.316406 681.335938 619.765625 684.886719 615.128906 688.324219 C 610.492188 691.765625 605.773438 695.085938 600.972656 698.292969 C 596.171875 701.5 591.296875 704.589844 586.34375 707.558594 C 581.394531 710.523438 576.371094 713.371094 571.28125 716.089844 C 566.191406 718.8125 561.035156 721.40625 555.816406 723.875 C 550.597656 726.34375 545.320312 728.683594 539.988281 730.890625 C 534.65625 733.101562 529.269531 735.175781 523.835938 737.121094 C 518.398438 739.066406 512.917969 740.878906 507.394531 742.554688 C 501.871094 744.230469 496.308594 745.769531 490.710938 747.171875 C 485.109375 748.574219 479.476562 749.835938 473.816406 750.964844 C 468.15625 752.089844 462.46875 753.078125 456.757812 753.925781 C 451.046875 754.769531 445.320312 755.476562 439.574219 756.042969 C 433.828125 756.609375 428.074219 757.035156 422.308594 757.316406 C 416.542969 757.601562 410.773438 757.742188 405 757.742188 Z M 405 757.742188 " fill-opacity="1" fill-rule="nonzero"/><path fill="#494c4f" d="M 561.773438 248.226562 C 561.167969 247.621094 560.535156 247.046875 559.875 246.5 C 559.210938 245.957031 558.527344 245.449219 557.8125 244.972656 C 557.101562 244.496094 556.367188 244.054688 555.613281 243.652344 C 554.859375 243.25 554.085938 242.882812 553.292969 242.554688 C 552.503906 242.226562 551.699219 241.9375 550.878906 241.6875 C 550.058594 241.441406 549.230469 241.234375 548.390625 241.066406 C 547.550781 240.898438 546.703125 240.773438 545.851562 240.6875 C 545 240.605469 544.144531 240.5625 543.289062 240.5625 C 542.429688 240.5625 541.578125 240.605469 540.726562 240.6875 C 539.871094 240.773438 539.027344 240.898438 538.1875 241.066406 C 537.347656 241.234375 536.515625 241.441406 535.699219 241.6875 C 534.878906 241.9375 534.074219 242.226562 533.28125 242.554688 C 532.492188 242.882812 531.71875 243.25 530.960938 243.652344 C 530.207031 244.054688 529.472656 244.496094 528.761719 244.972656 C 528.050781 245.449219 527.363281 245.957031 526.703125 246.5 C 526.039062 247.046875 525.40625 247.621094 524.800781 248.226562 L 405 368.027344 L 284.9375 248.226562 C 284.316406 247.730469 283.671875 247.269531 283.007812 246.832031 C 282.347656 246.398438 281.664062 245.996094 280.964844 245.621094 C 280.261719 245.25 279.546875 244.910156 278.816406 244.601562 C 278.085938 244.292969 277.339844 244.019531 276.585938 243.78125 C 275.828125 243.539062 275.0625 243.335938 274.289062 243.164062 C 273.511719 242.996094 272.730469 242.859375 271.945312 242.761719 C 271.15625 242.664062 270.367188 242.601562 269.574219 242.574219 C 268.78125 242.546875 267.988281 242.554688 267.195312 242.601562 C 266.402344 242.644531 265.613281 242.726562 264.832031 242.84375 C 264.046875 242.960938 263.269531 243.113281 262.496094 243.300781 C 261.726562 243.488281 260.964844 243.710938 260.214844 243.96875 C 259.464844 244.226562 258.726562 244.519531 258.003906 244.84375 C 257.277344 245.167969 256.570312 245.523438 255.878906 245.914062 C 255.1875 246.300781 254.515625 246.722656 253.863281 247.171875 C 253.207031 247.621094 252.578125 248.101562 251.96875 248.609375 C 251.359375 249.117188 250.773438 249.648438 250.210938 250.210938 C 249.648438 250.773438 249.117188 251.359375 248.609375 251.96875 C 248.101562 252.578125 247.621094 253.207031 247.171875 253.863281 C 246.722656 254.515625 246.300781 255.1875 245.914062 255.878906 C 245.523438 256.570312 245.167969 257.277344 244.84375 258.003906 C 244.519531 258.726562 244.226562 259.464844 243.96875 260.214844 C 243.710938 260.964844 243.488281 261.726562 243.300781 262.496094 C 243.113281 263.269531 242.960938 264.046875 242.84375 264.832031 C 242.726562 265.613281 242.644531 266.402344 242.601562 267.195312 C 242.554688 267.988281 242.546875 268.78125 242.574219 269.574219 C 242.601562 270.367188 242.664062 271.15625 242.761719 271.945312 C 242.859375 272.730469 242.996094 273.511719 243.164062 274.289062 C 243.335938 275.0625 243.539062 275.828125 243.78125 276.585938 C 244.019531 277.339844 244.292969 278.085938 244.601562 278.816406 C 244.910156 279.546875 245.25 280.261719 245.621094 280.964844 C 245.996094 281.664062 246.398438 282.347656 246.832031 283.007812 C 247.269531 283.671875 247.730469 284.316406 248.226562 284.9375 L 368.027344 405 L 248.226562 525.0625 C 247.507812 525.632812 246.820312 526.242188 246.164062 526.882812 C 245.511719 527.527344 244.890625 528.203125 244.308594 528.914062 C 243.722656 529.621094 243.179688 530.359375 242.671875 531.125 C 242.167969 531.890625 241.703125 532.679688 241.28125 533.496094 C 240.855469 534.3125 240.480469 535.144531 240.144531 536 C 239.808594 536.855469 239.519531 537.726562 239.277344 538.613281 C 239.035156 539.496094 238.839844 540.394531 238.691406 541.300781 C 238.542969 542.203125 238.441406 543.117188 238.390625 544.03125 C 238.335938 544.949219 238.332031 545.867188 238.378906 546.785156 C 238.421875 547.699219 238.515625 548.613281 238.652344 549.519531 C 238.792969 550.425781 238.980469 551.324219 239.21875 552.210938 C 239.453125 553.097656 239.734375 553.972656 240.058594 554.828125 C 240.386719 555.6875 240.757812 556.527344 241.171875 557.34375 C 241.589844 558.164062 242.046875 558.957031 242.546875 559.730469 C 243.042969 560.5 243.582031 561.242188 244.160156 561.957031 C 244.738281 562.667969 245.351562 563.351562 246 564 C 246.648438 564.648438 247.332031 565.261719 248.042969 565.839844 C 248.757812 566.417969 249.5 566.957031 250.269531 567.453125 C 251.042969 567.953125 251.835938 568.410156 252.65625 568.828125 C 253.472656 569.242188 254.3125 569.613281 255.171875 569.941406 C 256.027344 570.265625 256.902344 570.546875 257.789062 570.78125 C 258.675781 571.019531 259.574219 571.207031 260.480469 571.347656 C 261.386719 571.488281 262.300781 571.578125 263.214844 571.621094 C 264.132812 571.667969 265.050781 571.664062 265.96875 571.609375 C 266.882812 571.558594 267.796875 571.457031 268.699219 571.308594 C 269.605469 571.160156 270.503906 570.964844 271.386719 570.722656 C 272.273438 570.480469 273.144531 570.191406 274 569.855469 C 274.855469 569.519531 275.6875 569.144531 276.503906 568.71875 C 277.320312 568.296875 278.109375 567.832031 278.875 567.328125 C 279.640625 566.820312 280.378906 566.277344 281.085938 565.691406 C 281.796875 565.109375 282.472656 564.488281 283.117188 563.835938 C 283.757812 563.179688 284.367188 562.492188 284.9375 561.773438 L 405 441.972656 L 525.0625 561.773438 C 525.683594 562.269531 526.328125 562.730469 526.992188 563.167969 C 527.652344 563.601562 528.335938 564.003906 529.035156 564.378906 C 529.738281 564.75 530.453125 565.089844 531.183594 565.398438 C 531.914062 565.707031 532.660156 565.980469 533.414062 566.21875 C 534.171875 566.460938 534.9375 566.664062 535.710938 566.835938 C 536.488281 567.003906 537.269531 567.140625 538.054688 567.238281 C 538.84375 567.335938 539.632812 567.398438 540.425781 567.425781 C 541.21875 567.453125 542.011719 567.445312 542.804688 567.398438 C 543.597656 567.355469 544.386719 567.273438 545.167969 567.15625 C 545.953125 567.039062 546.730469 566.886719 547.503906 566.699219 C 548.273438 566.511719 549.035156 566.289062 549.785156 566.03125 C 550.535156 565.773438 551.273438 565.480469 551.996094 565.15625 C 552.722656 564.832031 553.429688 564.476562 554.121094 564.089844 C 554.8125 563.699219 555.484375 563.28125 556.136719 562.828125 C 556.792969 562.378906 557.421875 561.898438 558.03125 561.390625 C 558.644531 560.882812 559.226562 560.351562 559.789062 559.789062 C 560.351562 559.226562 560.882812 558.644531 561.390625 558.03125 C 561.898438 557.421875 562.378906 556.792969 562.828125 556.136719 C 563.28125 555.484375 563.699219 554.8125 564.089844 554.121094 C 564.476562 553.429688 564.832031 552.722656 565.15625 551.996094 C 565.480469 551.273438 565.773438 550.535156 566.03125 549.785156 C 566.289062 549.035156 566.511719 548.273438 566.699219 547.503906 C 566.886719 546.730469 567.039062 545.953125 567.15625 545.167969 C 567.273438 544.386719 567.355469 543.597656 567.398438 542.804688 C 567.445312 542.011719 567.453125 541.21875 567.425781 540.425781 C 567.398438 539.632812 567.335938 538.84375 567.238281 538.054688 C 567.140625 537.269531 567.003906 536.488281 566.835938 535.714844 C 566.664062 534.9375 566.460938 534.171875 566.21875 533.414062 C 565.980469 532.660156 565.707031 531.914062 565.398438 531.183594 C 565.089844 530.453125 564.75 529.738281 564.378906 529.035156 C 564.003906 528.335938 563.601562 527.652344 563.167969 526.992188 C 562.730469 526.328125 562.269531 525.683594 561.773438 525.0625 L 441.972656 405 L 561.773438 284.9375 C 562.371094 284.332031 562.9375 283.703125 563.46875 283.042969 C 564.003906 282.382812 564.507812 281.699219 564.972656 280.992188 C 565.441406 280.285156 565.875 279.554688 566.273438 278.804688 C 566.667969 278.054688 567.027344 277.289062 567.351562 276.503906 C 567.671875 275.71875 567.957031 274.917969 568.199219 274.105469 C 568.445312 273.292969 568.648438 272.46875 568.8125 271.636719 C 568.976562 270.804688 569.101562 269.964844 569.183594 269.121094 C 569.265625 268.277344 569.308594 267.429688 569.308594 266.582031 C 569.308594 265.734375 569.265625 264.886719 569.183594 264.042969 C 569.101562 263.195312 568.976562 262.359375 568.8125 261.527344 C 568.648438 260.691406 568.445312 259.871094 568.199219 259.058594 C 567.957031 258.246094 567.671875 257.445312 567.351562 256.660156 C 567.027344 255.875 566.667969 255.109375 566.273438 254.359375 C 565.875 253.609375 565.441406 252.878906 564.972656 252.171875 C 564.507812 251.464844 564.003906 250.78125 563.46875 250.121094 C 562.9375 249.460938 562.371094 248.828125 561.773438 248.226562 Z M 561.773438 248.226562 " fill-opacity="1" fill-rule="nonzero"/><g clip-path="url(#66f8298e8a)"><g clip-path="url(#af375eef57)"><path fill="#494c4f" d="M 370.621094 370.621094 L 439.378906 370.621094 L 439.378906 439.378906 L 370.621094 439.378906 Z M 370.621094 370.621094 " fill-opacity="1" fill-rule="nonzero"/></g></g></svg>