<svg width="19" height="18" viewBox="0 0 19 18" fill="none" xmlns="http://www.w3.org/2000/svg">
<g clip-path="url(#clip0_248_1928)">
<path d="M17.5306 1.35532e-06H1.48308C1.19987 -0.000534021 0.940389 0.15758 0.811006 0.409384C0.67984 0.664579 0.702861 0.971884 0.870433 1.20495L6.74956 9.48701C6.75152 9.48987 6.75366 9.49255 6.75562 9.4954C6.96924 9.78379 7.08488 10.1332 7.08542 10.4921V17.2444C7.08417 17.4443 7.16269 17.6365 7.30349 17.7784C7.44447 17.9201 7.63614 18 7.83601 18C7.93755 17.9998 8.0382 17.9797 8.13207 17.9406L11.4357 16.681C11.7316 16.5905 11.9281 16.3113 11.9281 15.975V10.4921C11.9286 10.1332 12.0442 9.78379 12.2577 9.4954C12.2596 9.49255 12.2618 9.48987 12.2637 9.48701L18.143 1.20477C18.3106 0.971884 18.3336 0.664758 18.2025 0.409563C18.0733 0.15758 17.8136 -0.000534021 17.5306 1.35532e-06Z" fill="url(#paint0_linear_248_1928)"/>
</g>
<defs>
<linearGradient id="paint0_linear_248_1928" x1="9.50673" y1="0" x2="9.50673" y2="18" gradientUnits="userSpaceOnUse">
<stop stop-color="#4766FF"/>
<stop offset="1" stop-color="#4867FF"/>
</linearGradient>
<clipPath id="clip0_248_1928">
<rect width="18" height="18" fill="white" transform="translate(0.5)"/>
</clipPath>
</defs>
</svg>
