<svg width="293" height="51" viewBox="0 0 293 51" fill="none" xmlns="http://www.w3.org/2000/svg">
<path d="M94.6282 16.5503C93.6188 15.9876 92.4979 15.7061 91.2649 15.7061H83.4131V34.4649H87.2452V29.0515H91.2649C92.4979 29.0515 93.6188 28.7699 94.6282 28.2073C95.6375 27.6446 96.4411 26.8591 97.04 25.8494C97.6386 24.8404 97.9378 23.6836 97.9378 22.379C97.9378 21.0571 97.6382 19.8958 97.04 18.8949C96.4415 17.8948 95.6375 17.113 94.6282 16.5503ZM93.6635 24.1613C93.3691 24.6527 92.9711 25.0281 92.4709 25.2867C91.9706 25.5461 91.4164 25.6754 90.8094 25.6754H87.2452V19.0826H90.8094C91.4164 19.0826 91.9706 19.2127 92.4709 19.4713C92.9711 19.7303 93.3687 20.1061 93.6635 20.5967C93.9584 21.0885 94.1058 21.6822 94.1058 22.379C94.1058 23.0758 93.9584 23.6699 93.6635 24.1613Z" fill="white"/>
<path d="M104.021 14.9021H100.35V34.4649H104.021V14.9021Z" fill="white"/>
<path d="M117.876 21.4413C116.821 20.798 115.527 20.4766 113.99 20.4766C112.471 20.4766 111.167 20.7936 110.078 21.428C108.988 22.0619 108.152 22.9247 107.572 24.0138C106.992 25.1042 106.701 26.3189 106.701 27.6586C106.701 28.9632 106.956 30.1559 107.465 31.2361C107.974 32.3172 108.693 33.1791 109.622 33.822C110.551 34.4652 111.641 34.7867 112.892 34.7867C113.677 34.7867 114.356 34.6702 114.928 34.4382C115.5 34.2066 115.987 33.8941 116.389 33.5006C116.79 33.1078 117.126 32.67 117.393 32.1875H117.447V34.4656H121.118V27.6586C121.118 26.3367 120.841 25.1307 120.287 24.0408C119.734 22.9509 118.93 22.0837 117.876 21.4413ZM116.979 29.6548C116.701 30.2711 116.304 30.758 115.786 31.1153C115.268 31.473 114.651 31.6514 113.937 31.6514C113.204 31.6514 112.574 31.473 112.047 31.1153C111.52 30.758 111.118 30.2711 110.841 29.6548C110.564 29.0385 110.426 28.355 110.426 27.6046C110.426 26.8542 110.564 26.18 110.841 25.5815C111.118 24.9829 111.52 24.5052 112.047 24.1475C112.574 23.7903 113.204 23.6114 113.937 23.6114C114.651 23.6114 115.268 23.7907 115.786 24.1475C116.304 24.5052 116.701 24.9829 116.979 25.5815C117.255 26.18 117.394 26.8542 117.394 27.6046C117.394 28.355 117.255 29.0385 116.979 29.6548Z" fill="white"/>
<path d="M134.88 21.3069C133.888 20.7535 132.686 20.4763 131.275 20.4763C129.881 20.4763 128.685 20.7535 127.684 21.3069C126.683 21.8611 125.92 22.6022 125.393 23.5314C124.866 24.4607 124.603 25.4874 124.603 26.6127V34.465H128.274V26.6127C128.274 26.0593 128.408 25.5546 128.676 25.0987C128.944 24.6431 129.306 24.2818 129.761 24.0132C130.217 23.7453 130.722 23.6112 131.275 23.6112C131.829 23.6112 132.334 23.7453 132.79 24.0132C133.245 24.2814 133.607 24.6431 133.875 25.0987C134.143 25.5542 134.277 26.0593 134.277 26.6127V34.465H137.948V26.6127C137.948 25.4874 137.685 24.4603 137.158 23.5314C136.63 22.6022 135.871 21.8611 134.88 21.3069Z" fill="white"/>
<path d="M151.12 21.4413C150.164 20.798 148.918 20.4766 147.381 20.4766C146.095 20.4766 144.943 20.771 143.924 21.3607C142.906 21.9503 142.102 22.7809 141.512 23.8531C140.923 24.9249 140.628 26.1848 140.628 27.6316C140.628 28.9185 140.945 30.0793 141.579 31.1157C142.213 32.1521 143.107 32.9693 144.259 33.5678C145.412 34.1664 146.765 34.4656 148.319 34.4656H152.179V31.33H148.373C147.712 31.33 147.118 31.2365 146.591 31.0488C146.064 30.8615 145.626 30.5804 145.278 30.2046C144.93 29.8296 144.684 29.3648 144.541 28.8114H153.786C153.822 28.6865 153.849 28.5028 153.867 28.2616C153.884 28.0207 153.894 27.8109 153.894 27.6316C153.894 26.3097 153.67 25.1086 153.224 24.0275C152.776 22.9464 152.075 22.0837 151.12 21.4413ZM144.514 26.3447C144.567 25.9875 144.661 25.6391 144.795 25.2999C144.928 24.9608 145.112 24.6567 145.344 24.3888C145.576 24.1201 145.867 23.9063 146.215 23.7456C146.563 23.5849 146.96 23.5043 147.408 23.5043C147.747 23.5043 148.06 23.5494 148.346 23.6384C148.631 23.7278 148.882 23.8527 149.096 24.0134C149.311 24.1741 149.498 24.3711 149.659 24.6031C149.82 24.8351 149.944 25.0985 150.034 25.3938C150.124 25.6886 150.186 26.0056 150.222 26.3451L144.514 26.3447Z" fill="white"/>
<path d="M161.021 17.3672H157.35V20.7977H155.019V23.9334H157.35V30.5797C157.35 31.7763 157.694 32.7233 158.382 33.4197C159.069 34.1165 160.021 34.4649 161.235 34.4649H164.854V31.3293H161.879C161.647 31.3293 161.446 31.2451 161.276 31.0751C161.106 30.9051 161.022 30.7045 161.022 30.4717V23.9334H164.854V20.7977H161.022L161.021 17.3672Z" fill="white"/>
<path d="M174.902 15.7061V34.4649H178.734V26.6126H186.935V34.4649H190.767V15.7061H186.935V23.2365H178.734V15.7061H174.902Z" fill="white"/>
<path d="M204.756 21.4413C203.701 20.798 202.406 20.4766 200.87 20.4766C199.351 20.4766 198.047 20.7936 196.958 21.428C195.868 22.0619 195.032 22.9247 194.452 24.0138C193.871 25.1042 193.581 26.3189 193.581 27.6586C193.581 28.9632 193.836 30.1559 194.345 31.2361C194.854 32.3172 195.573 33.1791 196.502 33.822C197.431 34.4652 198.521 34.7867 199.771 34.7867C200.557 34.7867 201.236 34.6702 201.808 34.4382C202.379 34.2066 202.866 33.8941 203.268 33.5006C203.67 33.1078 204.005 32.67 204.273 32.1875H204.327V34.4656H207.998V27.6586C207.998 26.3367 207.721 25.1307 207.167 24.0408C206.614 22.9509 205.81 22.0837 204.756 21.4413ZM203.858 29.6548C203.581 30.2711 203.183 30.758 202.665 31.1153C202.147 31.473 201.53 31.6514 200.816 31.6514C200.083 31.6514 199.454 31.473 198.927 31.1153C198.4 30.758 197.998 30.2711 197.721 29.6548C197.443 29.0385 197.306 28.355 197.306 27.6046C197.306 26.8542 197.443 26.18 197.721 25.5815C197.998 24.9829 198.4 24.5052 198.927 24.1475C199.454 23.7903 200.083 23.6114 200.816 23.6114C201.53 23.6114 202.147 23.7907 202.665 24.1475C203.183 24.5052 203.581 24.9829 203.858 25.5815C204.135 26.18 204.273 26.8542 204.273 27.6046C204.273 28.355 204.135 29.0385 203.858 29.6548Z" fill="white"/>
<path d="M221.759 21.3069C220.768 20.7535 219.566 20.4763 218.155 20.4763C216.761 20.4763 215.565 20.7535 214.564 21.3069C213.563 21.8611 212.799 22.6022 212.273 23.5314C211.746 24.4607 211.482 25.4874 211.482 26.6127V34.465H215.154V26.6127C215.154 26.0593 215.288 25.5546 215.556 25.0987C215.824 24.6431 216.186 24.2818 216.641 24.0132C217.097 23.7453 217.601 23.6112 218.155 23.6112C218.709 23.6112 219.214 23.7453 219.669 24.0132C220.125 24.2814 220.487 24.6431 220.755 25.0987C221.023 25.5542 221.156 26.0593 221.156 26.6127V34.465H224.828V26.6127C224.828 25.4874 224.564 24.4603 224.037 23.5314C223.51 22.6022 222.751 21.8611 221.759 21.3069Z" fill="white"/>
<path d="M238.254 22.4862H238.228C237.942 22.0753 237.588 21.7185 237.169 21.4144C236.749 21.1107 236.276 20.8787 235.749 20.7175C235.222 20.5568 234.672 20.4767 234.101 20.4767C232.761 20.4767 231.599 20.7711 230.617 21.3608C229.635 21.9504 228.871 22.7588 228.326 23.7859C227.781 24.8134 227.509 26.0061 227.509 27.3634C227.509 28.4353 227.669 29.4229 227.991 30.3247C228.313 31.2274 228.777 32.0128 229.385 32.6826C229.992 33.3533 230.742 33.8716 231.636 34.2369C232.529 34.6027 233.556 34.7859 234.718 34.7859C236.182 34.7859 237.456 34.4822 238.537 33.8748C239.617 33.2678 240.453 32.4059 241.042 31.289C241.632 30.1729 241.927 28.8638 241.927 27.3626V14.9014H238.255V22.4862H238.254ZM237.785 29.6682C237.508 30.2752 237.106 30.7581 236.579 31.115C236.052 31.4727 235.431 31.6511 234.717 31.6511C233.984 31.6511 233.359 31.4727 232.841 31.115C232.322 30.7577 231.925 30.2752 231.648 29.6682C231.371 29.0604 231.233 28.3813 231.233 27.6309C231.233 26.8809 231.371 26.2018 231.648 25.5944C231.925 24.9875 232.322 24.5053 232.841 24.1476C233.359 23.7904 233.984 23.6115 234.717 23.6115C235.431 23.6115 236.052 23.7908 236.579 24.1476C237.106 24.5053 237.508 24.9875 237.785 25.5944C238.062 26.2023 238.201 26.8813 238.201 27.6309C238.201 28.3817 238.062 29.0608 237.785 29.6682Z" fill="white"/>
<path d="M257.682 22.5799C257.075 21.9093 256.325 21.3917 255.431 21.0256C254.538 20.6599 253.511 20.4766 252.35 20.4766C250.885 20.4766 249.612 20.7803 248.531 21.3877C247.45 21.9947 246.614 22.8574 246.025 23.9735C245.435 25.0904 245.141 26.3987 245.141 27.8999V40.3612H248.812V32.7772H248.839C249.124 33.1884 249.477 33.5457 249.897 33.849C250.317 34.1531 250.79 34.3847 251.317 34.5458C251.844 34.7065 252.393 34.7867 252.965 34.7867C254.305 34.7867 255.466 34.4922 256.449 33.9025C257.432 33.3129 258.195 32.5049 258.74 31.4774C259.285 30.4499 259.557 29.2572 259.557 27.8999C259.557 26.8281 259.397 25.8408 259.075 24.9386C258.754 24.036 258.289 23.2497 257.682 22.5799ZM255.418 29.6681C255.141 30.2751 254.743 30.758 254.225 31.1149C253.707 31.4726 253.082 31.651 252.35 31.651C251.635 31.651 251.014 31.4726 250.487 31.1149C249.96 30.7576 249.558 30.2751 249.281 29.6681C249.004 29.0603 248.866 28.3812 248.866 27.6308C248.866 26.8808 249.004 26.2017 249.281 25.5944C249.558 24.9874 249.96 24.5052 250.487 24.1475C251.014 23.7903 251.635 23.6114 252.35 23.6114C253.082 23.6114 253.707 23.7907 254.225 24.1475C254.743 24.5052 255.141 24.9874 255.418 25.5944C255.695 26.2022 255.833 26.8812 255.833 27.6308C255.833 28.3816 255.695 29.0607 255.418 29.6681Z" fill="white"/>
<path d="M272.609 21.4413C271.555 20.798 270.26 20.4766 268.724 20.4766C267.205 20.4766 265.901 20.7936 264.811 21.428C263.721 22.0619 262.886 22.9247 262.305 24.0138C261.725 25.1042 261.435 26.3189 261.435 27.6586C261.435 28.9632 261.689 30.1559 262.198 31.2361C262.707 32.3172 263.426 33.1791 264.356 33.822C265.284 34.4652 266.374 34.7867 267.625 34.7867C268.411 34.7867 269.089 34.6702 269.661 34.4382C270.233 34.2066 270.72 33.8941 271.122 33.5006C271.524 33.1078 271.859 32.67 272.127 32.1875H272.18V34.4656H275.852V27.6586C275.852 26.3367 275.574 25.1307 275.021 24.0408C274.467 22.9509 273.663 22.0837 272.609 21.4413ZM271.712 29.6548C271.434 30.2711 271.037 30.758 270.519 31.1153C270.001 31.473 269.384 31.6514 268.67 31.6514C267.937 31.6514 267.307 31.473 266.78 31.1153C266.253 30.758 265.851 30.2711 265.574 29.6548C265.297 29.0385 265.159 28.355 265.159 27.6046C265.159 26.8542 265.297 26.18 265.574 25.5815C265.851 24.9829 266.253 24.5052 266.78 24.1475C267.307 23.7903 267.937 23.6114 268.67 23.6114C269.384 23.6114 270.001 23.7907 270.519 24.1475C271.037 24.5052 271.434 24.9829 271.712 25.5815C271.988 26.18 272.127 26.8542 272.127 27.6046C272.127 28.355 271.988 29.0385 271.712 29.6548Z" fill="white"/>
<path d="M291.891 23.5314C291.364 22.6022 290.605 21.8611 289.613 21.3069C288.621 20.7535 287.42 20.4763 286.008 20.4763C284.615 20.4763 283.418 20.7535 282.418 21.3069C281.417 21.8611 280.653 22.6022 280.127 23.5314C279.599 24.4607 279.336 25.4874 279.336 26.6127V34.465H283.007V26.6127C283.007 26.0593 283.141 25.5546 283.409 25.0987C283.678 24.6431 284.039 24.2818 284.495 24.0132C284.95 23.7453 285.455 23.6112 286.009 23.6112C286.563 23.6112 287.067 23.7453 287.523 24.0132C287.979 24.2814 288.341 24.6431 288.609 25.0987C288.877 25.5542 289.01 26.0593 289.01 26.6127V34.465H292.682V26.6127C292.682 25.4874 292.418 24.4607 291.891 23.5314Z" fill="white"/>
<path d="M2.59929 25.8611C2.49362 27.2505 1.38942 28.3545 0 28.4604C1.38942 28.566 2.4934 29.6702 2.59929 31.0596C2.70496 29.6702 3.80915 28.5663 5.19851 28.4604C3.80915 28.3547 2.70496 27.2505 2.59929 25.8611Z" fill="white"/>
<path d="M41.744 0C41.6693 0.982379 40.8885 1.76306 39.9062 1.83772C40.8887 1.91244 41.6693 2.69329 41.744 3.67545C41.8187 2.69307 42.5995 1.91244 43.5817 1.83772C42.5995 1.76306 41.8189 0.982379 41.744 0Z" fill="white"/>
<path d="M47.0907 47.1616C47.0161 48.1441 46.2351 48.9247 45.2529 48.9993C46.2354 49.0741 47.0161 49.8549 47.0907 50.8371C47.1654 49.8547 47.9463 49.0741 48.9284 48.9993C47.9463 48.9247 47.1654 48.1441 47.0907 47.1616Z" fill="white"/>
<path d="M10.0394 36.8323C9.9885 36.9553 9.94182 37.0784 9.89726 37.1994C9.83361 37.3712 9.77632 37.541 9.72751 37.7086H6.375C6.46199 37.5643 6.55111 37.4179 6.64235 37.2715C6.73359 37.1251 6.82907 36.9787 6.92668 36.8323H10.0394Z" fill="white"/>
<path d="M9.9609 37.0283H6.79788C6.74886 37.1043 6.69857 37.1805 6.65104 37.2562C6.10573 38.1219 5.66227 38.96 5.31641 39.7642C5.58588 39.7239 5.85748 39.7027 6.13119 39.7027C6.94386 39.7027 7.7056 39.864 8.39732 40.1504C8.67528 40.108 8.95324 40.0846 9.23332 40.0846C9.36063 40.0846 9.48582 40.0888 9.61102 40.0974C9.39671 39.255 9.50281 38.2726 9.90596 37.1841C9.92442 37.1327 9.94138 37.0799 9.9609 37.0283Z" fill="white"/>
<path d="M37.6891 36.1462C39.5538 36.4784 41.3862 36.7647 43.1728 37.0066C40.2547 38.5498 37.3715 39.8969 34.6078 41.0272C24.1104 38.7384 15.8218 33.7911 12.8477 28.4602C18.1321 31.3707 27.1892 34.2749 37.6891 36.1462Z" fill="white"/>
<path d="M63.6611 37.5156C59.8401 40.7949 52.7073 42.5805 44.3428 42.2722C45.0547 41.9091 45.7691 41.5329 46.4858 41.1438C48.4504 40.0824 50.3414 38.981 52.1548 37.8611C56.6843 38.0972 60.6298 37.9778 63.6611 37.5156Z" fill="white"/>
<path d="M66.7793 27.2334C66.6978 27.111 66.6119 26.9877 66.5251 26.8689C63.5863 29.7391 59.9208 32.6999 55.6971 35.5659C64.2082 35.7072 70.0537 34.4114 70.5118 31.8408C70.7603 30.4465 69.3811 28.8524 66.7793 27.2334ZM61.4554 21.2636C61.5082 21.2191 61.5691 21.1805 61.63 21.1418C57.5325 17.22 52.523 14.1786 46.856 12.4045C46.8622 12.4461 46.8639 12.4868 46.8569 12.5261C46.7304 13.2363 44.4755 13.4279 41.8222 12.9549C39.1733 12.4828 37.1234 11.5242 37.25 10.814C37.257 10.7747 37.2727 10.7372 37.2929 10.7002C31.3619 10.4074 25.6102 11.5312 20.4102 13.796C20.4539 13.8533 20.4977 13.9106 20.532 13.9706C21.0739 14.8898 20.4665 16.2561 19.1707 17.0185C17.8793 17.7817 16.3923 17.6516 15.8459 16.7316C15.7638 16.5867 15.7104 16.4333 15.6764 16.2699C14.924 16.7337 14.1903 17.2188 13.4737 17.7337C10.4728 18.3542 8.62786 19.3739 8.37939 20.7682C7.64714 24.8767 20.9653 30.6844 38.1181 33.7411C41.1156 34.2754 44.0308 34.6915 46.8053 34.9881C52.7645 31.5145 57.8183 27.749 61.4235 24.2427C60.7155 23.1455 60.7087 21.8722 61.4554 21.2636ZM29.0173 20.5129C27.9748 21.5948 26.5057 21.8679 25.7392 21.1244C24.9726 20.3809 25.1952 18.9058 26.2419 17.8248C27.2835 16.7473 28.7527 16.4742 29.5199 17.2132C30.2866 17.9565 30.0631 19.4361 29.0173 20.5129ZM39.556 25.6724C38.3491 25.4572 37.6073 23.945 37.9016 22.2938C38.1959 20.6426 39.4145 19.4798 40.6214 19.6947C41.8326 19.9105 42.5746 21.4228 42.2803 23.074C41.9858 24.7254 40.7672 25.8884 39.556 25.6724ZM54.0977 26.178C53.1214 26.6109 51.8371 25.847 51.2283 24.471C50.6229 23.1001 50.9247 21.6343 51.9009 21.2015C52.8763 20.7728 54.1607 21.5367 54.766 22.9078C55.3746 24.2841 55.0737 25.7452 54.0977 26.178Z" fill="white"/>
<path d="M60.0362 6.47291V6.47714L59.9195 8.67325C59.805 8.66902 59.6904 8.66476 59.5737 8.66263C55.8965 8.59048 50.7829 9.6896 45.0199 11.8157C44.3282 11.6311 43.5771 11.4571 42.7793 11.2958C48.9878 8.75387 54.7826 7.13278 59.5737 6.52805L59.6076 6.52383C59.7519 6.50687 59.8941 6.48989 60.0362 6.47291Z" fill="white"/>
<path d="M14.9581 30.1633C12.5519 32.5843 10.846 34.8674 10.0397 36.8322C9.98873 36.9553 9.94205 37.0784 9.89749 37.1993L6.64258 37.2715C6.73382 37.1251 6.8293 36.9786 6.92691 36.8322C8.52254 34.4112 10.8481 31.7992 13.7677 29.1321C14.1645 29.4779 14.5613 29.8217 14.9581 30.1633Z" fill="white"/>
<path d="M44.6129 38.9986C26.1444 48.9904 8.42489 51.9991 5.02994 45.7227C3.92021 43.6709 4.47614 40.8828 6.37518 37.7085C6.46218 37.5642 6.55129 37.4178 6.64253 37.2714L9.89744 37.1993C9.83379 37.3711 9.7765 37.5409 9.7277 37.7085C9.37759 38.9095 9.41367 39.9662 9.88047 40.8276C12.4352 45.5402 26.8722 42.6694 42.1304 34.4112C57.3885 26.153 67.6901 15.6371 65.1375 10.9245C64.4267 9.61532 62.8013 8.89389 60.4991 8.7093C60.3103 8.69233 60.1172 8.68171 59.9199 8.67322L60.0366 6.47711V6.47289C60.1894 6.45593 60.3421 6.43895 60.4949 6.4241H60.4991C66.2515 5.84271 70.4188 6.82088 71.8934 9.53896C75.2863 15.8175 63.0751 29.0047 44.6129 38.9986Z" fill="white"/>
<g opacity="0.06">
<path d="M40.8849 18.1588L40.8845 18.1584C38.8049 17.7894 36.8195 19.4795 36.3688 22.0108C35.9177 24.5416 37.1946 26.8149 39.2764 27.1864C39.469 27.2206 39.6611 27.2369 39.8507 27.2369C41.7144 27.2369 43.3877 25.6313 43.797 23.3349C44.2481 20.8041 42.9688 18.5306 40.8849 18.1588ZM42.2722 23.0686C41.9779 24.7198 40.7593 25.8826 39.5482 25.6668C38.3413 25.4516 37.5995 23.9394 37.8936 22.2882C38.1879 20.6369 39.4064 19.474 40.6133 19.6891C41.8245 19.9051 42.5665 21.4174 42.2722 23.0686Z" fill="white"/>
<path d="M25.1214 16.7361C23.457 18.4548 23.2514 20.8658 24.6533 22.2251C25.2239 22.7782 26.0022 23.0808 26.8505 23.0808C26.8708 23.0808 26.8914 23.0804 26.9118 23.0799C28.0519 23.0604 29.2231 22.5126 30.1207 21.5807C30.8489 20.8308 31.329 19.8999 31.4721 18.9595C31.6414 17.8432 31.3199 16.7974 30.587 16.0866C29.1819 14.7335 26.7826 15.0182 25.1214 16.7361ZM29.0094 20.5072C27.967 21.5891 26.498 21.8622 25.7314 21.1187C24.965 20.3752 25.1874 18.9001 26.2341 17.8191C27.2757 16.7416 28.7448 16.4685 29.5121 17.2075C30.2787 17.9508 30.0555 19.4304 29.0094 20.5072Z" fill="white"/>
<path d="M51.2702 19.7726L51.266 19.7743C49.4802 20.5655 48.838 22.8985 49.8045 25.0861C50.3313 26.2771 51.2435 27.1961 52.3076 27.6071C52.7035 27.7601 53.1097 27.836 53.5081 27.836C53.9274 27.836 54.338 27.7518 54.7182 27.5827C56.5031 26.791 57.1426 24.4572 56.1755 22.2713C55.2107 20.0852 53.056 18.988 51.2702 19.7726ZM54.0902 26.1725C53.1139 26.6054 51.8295 25.8415 51.2208 24.4655C50.6154 23.0946 50.9172 21.6288 51.8932 21.1959C52.8686 20.7675 54.153 21.5312 54.7583 22.9023C55.3673 24.2783 55.0664 25.7397 54.0902 26.1725Z" fill="white"/>
<path d="M16.3214 18.9221C16.6745 19.0229 17.0458 19.0721 17.4257 19.0721C18.2317 19.0721 19.0739 18.8487 19.8462 18.4177C20.7659 17.9091 21.4998 17.154 21.9121 16.2914C22.4005 15.2689 22.3973 14.1702 21.9008 13.2735C21.8862 13.2472 21.8679 13.2239 21.8527 13.198C21.3655 13.3868 20.8811 13.5821 20.4028 13.7904C20.4465 13.8477 20.4902 13.905 20.5246 13.965C21.0665 14.8842 20.459 16.2503 19.1632 17.0129C17.8719 17.7761 16.3849 17.646 15.8385 16.726C15.7566 16.5811 15.7029 16.4277 15.6692 16.2643C15.1958 16.556 14.7324 16.8601 14.2734 17.1709C14.3127 17.2622 14.3539 17.3532 14.4029 17.4419C14.7975 18.1559 15.4795 18.6819 16.3214 18.9221Z" fill="white"/>
</g>
<path d="M60.4993 6.42407V8.70931C60.3105 8.69233 60.1174 8.68171 59.9201 8.67322C59.8055 8.669 59.6909 8.66475 59.5742 8.66262V6.52804L59.6082 6.52381L60.0368 6.47713L60.4951 6.42408L60.4993 6.42407Z" fill="white"/>
</svg>
