<svg width="301" height="10" viewBox="0 0 301 10" fill="none" xmlns="http://www.w3.org/2000/svg">
<path d="M244.256 6.86824C248.237 6.86824 252.219 6.89432 256.198 6.86319C264.441 6.79839 272.686 6.61072 280.925 6.65364C286.973 6.68562 293.068 6.82448 299.481 7.58777C298.613 7.68875 298.18 7.77543 297.737 7.78385C294.973 7.84107 292.207 7.89662 289.441 7.9227C280.05 8.01275 270.659 8.1028 261.266 8.17096C248.696 8.26185 236.122 8.30645 223.554 8.41754C212.877 8.51095 202.205 8.67085 191.531 8.79876C190.449 8.81223 189.368 8.80886 188.288 8.81223C179.772 8.83663 171.256 8.84842 162.741 8.88881C151.319 8.94351 139.893 8.9696 128.475 9.10172C114.154 9.26751 99.8392 9.53933 85.5204 9.74551C77.7566 9.85744 69.9872 10.0081 62.2196 9.99966C53.9103 9.99209 45.5899 9.90036 37.2972 9.69165C30.1581 9.51156 23.0705 9.0647 16.0198 8.53704C11.5731 8.20378 7.08026 7.96983 2.74776 7.41693C2.10461 7.3353 1.33615 7.32268 0.844115 7.16446C0.387093 7.01803 -0.0551873 6.7075 0.00562617 6.49374C0.0664396 6.28336 0.689317 6.04015 1.21637 5.93074C1.71209 5.82807 2.40684 5.85584 3.00576 5.87352C12.1702 6.13356 21.3309 6.41548 30.499 6.66206C34.6103 6.7723 38.7327 6.87076 42.8515 6.88086C57.3822 6.91705 71.9185 6.97596 86.4474 6.90358C97.4601 6.84888 108.464 6.57369 119.476 6.46008C130.557 6.34563 141.642 6.31365 152.727 6.23791C166.987 6.14029 181.245 6.04267 195.503 5.93159C209.152 5.82471 222.804 5.73214 236.45 5.56887C244.214 5.47546 251.974 5.29116 259.725 5.07741C270.047 4.79212 280.273 4.20303 290.331 3.19485C292.271 3.00129 294.153 2.70927 296.451 2.4122C295.808 2.26661 295.605 2.18414 295.384 2.17657C288.927 1.93925 282.479 1.6203 276.007 1.50669C270.55 1.41075 265.066 1.55634 259.594 1.59337C249.389 1.66322 239.183 1.69772 228.981 1.81301C222.839 1.88202 216.704 2.06716 210.569 2.21528C205.916 2.32805 201.263 2.46101 196.612 2.59314C189.804 2.78585 182.995 2.97941 176.19 3.18475C166.218 3.48603 156.245 3.77468 146.28 4.11383C140.56 4.30822 134.862 4.60698 129.148 4.83251C125.248 4.98652 121.341 5.12706 117.431 5.22131C104.345 5.53858 91.2627 5.88277 78.1675 6.11841C69.8674 6.26821 61.547 6.31449 53.2414 6.26989C48.3947 6.24296 43.5536 5.9501 38.7143 5.76159C37.9588 5.73214 37.1424 5.69932 36.3168 5.34334C37.6657 5.20448 38.7254 5.22215 39.8237 5.3324C40.7949 5.43002 41.7808 5.53185 42.7741 5.56214C52.366 5.85416 61.9506 5.81293 71.537 5.49061C74.902 5.37784 78.291 5.3972 81.6597 5.29874C94.0583 4.9335 106.461 4.58762 118.844 4.14917C127.59 3.83948 136.302 3.3741 145.037 3.01223C150.346 2.79258 155.672 2.63437 160.99 2.45765C173.919 2.02845 186.847 1.60094 199.776 1.18185C205.502 0.996705 211.233 0.846909 216.959 0.660925C227.61 0.315046 238.291 0.39836 248.956 0.266236C255.441 0.186288 261.926 0.123171 268.41 0.0230261C275.395 -0.0855345 282.311 0.208168 289.231 0.518702C290.908 0.593601 292.611 0.58771 294.276 0.687855C295.865 0.78295 297.511 0.881412 298.97 1.1322C301.379 1.54624 301.661 2.36087 299.726 3.07535C298.895 3.38251 297.868 3.64087 296.818 3.80161C294.676 4.12982 292.487 4.4252 290.266 4.64737C280.669 5.61095 270.911 6.17059 261.058 6.44662C255.468 6.60315 249.872 6.71844 244.279 6.85225C244.269 6.85814 244.262 6.86319 244.253 6.86908L244.256 6.86824ZM69.5173 8.69862C69.5265 8.62709 69.5302 8.55471 69.5375 8.48318H44.2926V8.4916C52.7014 8.5606 61.1103 8.62961 69.5191 8.69862H69.5173ZM78.162 8.48907C78.162 8.4958 78.1712 8.50169 78.1712 8.50843H80.9907C80.9907 8.50169 80.9907 8.4958 80.9907 8.48907H78.162Z" fill="#FD7351"/>
</svg>
