<svg width="34" height="31" viewBox="0 0 34 31" fill="none" xmlns="http://www.w3.org/2000/svg">
<path d="M16.5948 4.39228L17 4.95252L17.4051 4.3923C18.0172 3.546 18.7079 2.82571 19.4657 2.23955C20.9623 1.08231 22.6525 0.5 24.5021 0.5C26.9898 0.5 29.271 1.49423 30.9352 3.29919C32.5814 5.08494 33.5 7.53777 33.5 10.2177C33.5 12.9498 32.4887 15.4729 30.2431 18.1823L30.2431 18.1824C28.2187 20.6252 25.2991 23.1153 21.8629 26.0434L21.8629 26.0435L21.8337 26.0683C20.6709 27.0594 19.3526 28.1831 17.9847 29.3793L17.9845 29.3796C17.7127 29.6176 17.3629 29.7491 17 29.7491C16.637 29.7491 16.2875 29.6176 16.0151 29.3791L16.0147 29.3788C14.6367 28.174 13.3099 27.0431 12.1413 26.0471L12.1379 26.0442L12.1379 26.0442C8.70121 23.1156 5.78155 20.6252 3.75717 18.1826C1.51151 15.4728 0.5 12.9498 0.5 10.218C0.5 7.53777 1.41855 5.08494 3.06457 3.29919C4.72874 1.49424 7.01014 0.5 9.49791 0.5C11.3475 0.5 13.0378 1.08233 14.5341 2.23958L14.5341 2.2396C15.2921 2.82574 15.983 3.54626 16.5948 4.39228Z" fill="#FD7351" stroke="#FD7351"/>
</svg>
