<svg width="34" height="34" viewBox="0 0 34 34" fill="none" xmlns="http://www.w3.org/2000/svg">
<path d="M31.3028 4.81964C29.5427 2.91072 27.1277 1.85938 24.5021 1.85938C22.5395 1.85938 20.7421 2.47986 19.1598 3.70345C18.3613 4.32108 17.6379 5.07671 17 5.95866C16.3624 5.07697 15.6387 4.32108 14.84 3.70345C13.2579 2.47986 11.4605 1.85938 9.49791 1.85938C6.87227 1.85938 4.457 2.91072 2.69698 4.81964C0.957962 6.70625 0 9.28365 0 12.0774C0 14.9528 1.07158 17.5849 3.37219 20.361C5.43027 22.8443 8.3882 25.3651 11.8136 28.2841C12.9832 29.281 14.309 30.4109 15.6856 31.6146C16.0493 31.9331 16.516 32.1085 17 32.1085C17.4838 32.1085 17.9507 31.9331 18.3139 31.6151C19.6905 30.4112 21.0171 29.2807 22.1872 28.2834C25.6121 25.3649 28.57 22.8443 30.6281 20.3608C32.9287 17.5849 34 14.9528 34 12.0771C34 9.28365 33.042 6.70625 31.3028 4.81964Z" fill="#3E79FF"/>
</svg>
