<svg width="34" height="34" viewBox="0 0 34 34" fill="none" xmlns="http://www.w3.org/2000/svg">
<path d="M16.5948 6.25166L17 6.81189L17.4051 6.25168C18.0172 5.40537 18.7079 4.68509 19.4657 4.09893C20.9623 2.94169 22.6525 2.35938 24.5021 2.35938C26.9898 2.35938 29.271 3.35361 30.9352 5.15857C32.5814 6.94432 33.5 9.39714 33.5 12.0771C33.5 14.8092 32.4887 17.3322 30.2431 20.0417L30.2431 20.0417C28.2187 22.4846 25.2991 24.9747 21.8629 27.9028L21.8629 27.9028L21.8337 27.9277C20.6709 28.9188 19.3526 30.0424 17.9847 31.2387L17.9845 31.2389C17.7127 31.4769 17.3629 31.6085 17 31.6085C16.637 31.6085 16.2875 31.477 16.0151 31.2384L16.0147 31.2381C14.6367 30.0333 13.3099 28.9025 12.1413 27.9065L12.1379 27.9036L12.1379 27.9036C8.70121 24.9749 5.78155 22.4846 3.75717 20.042C1.51151 17.3322 0.5 14.8092 0.5 12.0774C0.5 9.39715 1.41855 6.94432 3.06457 5.15857C4.72874 3.35362 7.01014 2.35938 9.49791 2.35938C11.3475 2.35938 13.0378 2.94171 14.5341 4.09896L14.5341 4.09898C15.2921 4.68512 15.983 5.40564 16.5948 6.25166Z" stroke="#0A213A"/>
</svg>
