<svg width="604" height="12" viewBox="0 0 604 12" fill="none" xmlns="http://www.w3.org/2000/svg">
<path d="M113.864 8.24188C105.877 8.24188 97.8854 8.27319 89.9016 8.23582C73.3609 8.15806 56.8164 7.93286 40.2831 7.98437C28.1465 8.02274 15.9175 8.18937 3.04883 9.10532C4.79053 9.2265 5.65955 9.33052 6.54706 9.34062C12.0939 9.40929 17.6445 9.47594 23.195 9.50725C42.0396 9.6153 60.8842 9.72336 79.7324 9.80515C104.956 9.91422 130.187 9.96774 155.406 10.101C176.832 10.2131 198.247 10.405 219.665 10.5585C221.836 10.5747 224.006 10.5706 226.173 10.5747C243.261 10.604 260.349 10.6181 277.437 10.6666C300.357 10.7322 323.284 10.7635 346.196 10.9221C374.933 11.121 403.658 11.4472 432.391 11.6946C447.97 11.8289 463.561 12.0097 479.147 11.9996C495.821 11.9905 512.517 11.8804 529.158 11.63C543.484 11.4139 557.706 10.8776 571.854 10.2444C580.777 9.84454 589.792 9.5638 598.486 8.90032C599.777 8.80236 601.319 8.78721 602.306 8.59736C603.223 8.42164 604.111 8.049 603.989 7.79249C603.867 7.54003 602.617 7.24817 601.559 7.11689C600.564 6.99369 599.17 7.02701 597.969 7.04822C579.579 7.36027 561.196 7.69858 542.799 7.99447C534.549 8.12676 526.277 8.24491 518.012 8.25703C488.854 8.30046 459.685 8.37115 430.531 8.2843C408.432 8.21866 386.352 7.88843 364.253 7.7521C342.018 7.61476 319.775 7.57638 297.532 7.48549C268.917 7.36835 240.307 7.2512 211.696 7.1179C184.306 6.98965 156.911 6.87856 129.528 6.68265C113.949 6.57055 98.3772 6.34939 82.8238 6.09289C62.1118 5.75054 41.5922 5.04364 21.4089 3.83382C17.5151 3.60155 13.7394 3.25112 9.12817 2.89464C10.4188 2.71993 10.8255 2.62097 11.2693 2.61188C24.2267 2.3271 37.1657 1.94436 50.1528 1.80803C61.1023 1.6929 72.1072 1.86761 83.0864 1.91204C103.565 1.99586 124.044 2.03727 144.516 2.17562C156.841 2.25843 169.152 2.4806 181.462 2.65833C190.799 2.79365 200.136 2.95321 209.47 3.11176C223.13 3.34302 236.794 3.57529 250.45 3.8217C270.459 4.18323 290.473 4.52961 310.467 4.93659C321.945 5.16987 333.379 5.52837 344.847 5.79902C352.671 5.98382 360.511 6.15247 368.358 6.26557C394.617 6.64629 420.868 7.05933 447.146 7.34209C463.801 7.52185 480.497 7.57739 497.163 7.52387C506.889 7.49155 516.603 7.14012 526.314 6.91391C527.83 6.87856 529.468 6.83918 531.125 6.412C528.418 6.24538 526.292 6.26658 524.088 6.39888C522.139 6.51602 520.161 6.63822 518.168 6.67457C498.92 7.02499 479.687 6.97551 460.451 6.58873C453.698 6.45341 446.898 6.47664 440.138 6.35848C415.258 5.9202 390.372 5.50515 365.522 4.979C347.971 4.60737 330.491 4.04892 312.963 3.61468C302.31 3.3511 291.623 3.16125 280.95 2.94917C255.006 2.43414 229.065 1.92113 203.12 1.41822C191.631 1.19605 180.131 1.01629 168.641 0.79311C147.267 0.378055 125.834 0.478032 104.434 0.319483C91.4214 0.223545 78.4085 0.147805 65.3956 0.0276314C51.3805 -0.102641 37.5023 0.249802 23.6166 0.622443C20.2515 0.712321 16.8346 0.705252 13.4917 0.825426C10.3041 0.939541 7.00189 1.05769 4.07312 1.35863C-0.76001 1.85549 -1.32587 2.83304 2.55695 3.69042C4.22473 4.05902 6.28448 4.36905 8.39227 4.56193C12.6893 4.95578 17.0824 5.31024 21.5384 5.57685C40.7971 6.73314 60.3775 7.4047 80.1502 7.73594C91.366 7.92377 102.597 8.06213 113.82 8.2227C113.838 8.22976 113.853 8.23582 113.871 8.24289L113.864 8.24188ZM464.504 10.4383C464.485 10.3525 464.478 10.2657 464.463 10.1798H515.121V10.1899C498.247 10.2727 481.373 10.3555 464.5 10.4383H464.504ZM447.157 10.1869C447.157 10.195 447.138 10.202 447.138 10.2101H441.48C441.48 10.202 441.48 10.195 441.48 10.1869H447.157Z" fill="#FD7351"/>
</svg>
