<svg width="15" height="15" viewBox="0 0 15 15" fill="none" xmlns="http://www.w3.org/2000/svg">
<path fill-rule="evenodd" clip-rule="evenodd" d="M4.1798 14.9085C5.28812 14.9759 6.39512 15.0024 7.5 14.9999C8.60475 15.0024 9.71187 14.9759 10.8202 14.9085C11.7536 14.8517 12.6391 14.5426 13.3774 13.9405C14.0885 13.3606 14.5346 12.5839 14.7566 11.7137C14.9619 10.91 14.9729 10.102 14.9829 9.37212L14.9831 9.35774C14.9915 8.74049 14.9985 8.12124 15 7.50137V7.49999V7.49862C14.9985 6.87874 14.9915 6.25949 14.9831 5.64224L14.9829 5.62787C14.9729 4.89801 14.9617 4.09003 14.7566 3.28617C14.5346 2.41606 14.0885 1.63937 13.3774 1.0595C12.6391 0.457421 11.7536 0.148296 10.8202 0.0915457C9.71187 0.0241458 8.60475 -0.00241624 7.5 0.000171254C6.39512 -0.00241624 5.28812 0.0241458 4.1798 0.0915457C3.24641 0.148296 2.3609 0.457421 1.62256 1.0595C0.911437 1.63937 0.465325 2.41607 0.243288 3.28616C0.0381252 4.09016 0.0270875 4.89826 0.017125 5.62812L0.0169372 5.64224C0.00848725 6.25949 0.00145 6.87874 0 7.49862V7.49999V7.50137C0.00145 8.12124 0.00848725 8.74049 0.0169372 9.35774L0.017125 9.37187C0.0270875 10.1017 0.0381252 10.9099 0.243288 11.7139C0.465325 12.5839 0.911437 13.3606 1.62256 13.9405C2.3609 14.5426 3.24641 14.8517 4.1798 14.9085ZM7.49862 13.828C6.41375 13.8305 5.33125 13.8045 4.25094 13.7387C3.5338 13.6951 2.89007 13.462 2.3632 13.0324C1.87369 12.6331 1.5481 12.0874 1.37882 11.4241C1.21217 10.771 1.19905 10.0959 1.18874 9.34174C1.18032 8.72637 1.17336 8.11274 1.17192 7.49999C1.17336 6.88724 1.18032 6.27362 1.18874 5.65824C1.19905 4.90411 1.21217 4.22901 1.37882 3.57591C1.5481 2.9126 1.87369 2.36685 2.3632 1.96768C2.89006 1.53805 3.5338 1.30487 4.25094 1.26126C5.33125 1.19556 6.41375 1.16948 7.49862 1.17205H7.5H7.50137C8.58612 1.16948 9.66875 1.19556 10.749 1.26126C11.4662 1.30487 12.1099 1.53803 12.6367 1.96767C13.1262 2.36683 13.4519 2.91259 13.6211 3.57589C13.7877 4.22899 13.8009 4.90409 13.8112 5.65824C13.8196 6.27362 13.8266 6.88712 13.8281 7.49999C13.8266 8.11287 13.8196 8.72637 13.8112 9.34174C13.8009 10.0959 13.7877 10.771 13.6211 11.4241C13.4519 12.0874 13.1262 12.6331 12.6367 13.0324C12.1099 13.462 11.4662 13.6951 10.749 13.7387C9.66875 13.8045 8.58612 13.8305 7.50137 13.828H7.5H7.49862Z" fill="#143154"/>
<path fill-rule="evenodd" clip-rule="evenodd" d="M3.85645 7.5003C3.85645 9.51217 5.48746 11.1432 7.49933 11.1432C9.51121 11.1432 11.1422 9.51217 11.1422 7.5003C11.1422 5.48842 9.51121 3.85742 7.49933 3.85742C5.48746 3.85742 3.85645 5.48842 3.85645 7.5003ZM7.49933 9.97742C6.13121 9.97742 5.02221 8.86842 5.02221 7.5003C5.02221 6.13217 6.13121 5.02317 7.49933 5.02317C8.86746 5.02317 9.97646 6.13217 9.97646 7.5003C9.97646 8.86842 8.86746 9.97742 7.49933 9.97742Z" fill="#143154"/>
<path d="M12.4281 3.42843C12.4281 3.9018 12.0444 4.28558 11.571 4.28558C11.0976 4.28558 10.7139 3.9018 10.7139 3.42843C10.7139 2.95506 11.0976 2.57129 11.571 2.57129C12.0444 2.57129 12.4281 2.95506 12.4281 3.42843Z" fill="#143154"/>
</svg>
