<svg width="21" height="21" viewBox="0 0 21 21" fill="none" xmlns="http://www.w3.org/2000/svg">
<path fill-rule="evenodd" clip-rule="evenodd" d="M6.14766 20.0748C7.60532 20.1634 9.06125 20.1983 10.5144 20.195C11.9673 20.1983 13.4234 20.1634 14.8812 20.0748C16.1087 20.0002 17.2733 19.5936 18.2443 18.8017C19.1796 18.039 19.7663 17.0175 20.0583 15.8731C20.3282 14.816 20.3427 13.7533 20.3558 12.7934L20.3562 12.7745C20.3672 11.9627 20.3764 11.1482 20.3784 10.333V10.3311V10.3293C20.3764 9.51408 20.3672 8.69964 20.3562 7.88784L20.3558 7.86893C20.3427 6.90902 20.3281 5.84637 20.0583 4.78913C19.7663 3.64476 19.1796 2.62326 18.2443 1.86061C17.2733 1.06876 16.1087 0.662201 14.8812 0.587564C13.4234 0.49892 11.9673 0.463985 10.5144 0.467388C9.06125 0.463985 7.60532 0.49892 6.14766 0.587564C4.92007 0.662201 3.75544 1.06876 2.78438 1.86061C1.84911 2.62326 1.26239 3.64478 0.970362 4.78911C0.700533 5.84653 0.686016 6.90934 0.672913 7.86926L0.672666 7.88784C0.661553 8.69964 0.652298 9.51408 0.650391 10.3293V10.3311V10.333C0.652298 11.1482 0.661553 11.9627 0.672666 12.7745L0.672913 12.793C0.686016 13.753 0.700533 14.8158 0.970362 15.8732C1.26239 17.0175 1.84911 18.039 2.78438 18.8017C3.75544 19.5936 4.92007 20.0002 6.14766 20.0748ZM10.5126 18.6537C9.08575 18.657 7.66204 18.6228 6.24122 18.5363C5.29804 18.479 4.45141 18.1724 3.75847 17.6073C3.11466 17.0822 2.68645 16.3645 2.46382 15.4922C2.24464 14.6332 2.22738 13.7452 2.21382 12.7534C2.20275 11.9441 2.1936 11.137 2.1917 10.3311C2.1936 9.52526 2.20275 8.71822 2.21382 7.90888C2.22738 6.91704 2.24464 6.02915 2.46382 5.17019C2.68645 4.29781 3.11466 3.58004 3.75847 3.05506C4.4514 2.49 5.29804 2.18333 6.24122 2.12597C7.66204 2.03956 9.08575 2.00527 10.5126 2.00864H10.5144H10.5162C11.9428 2.00527 13.3667 2.03956 14.7875 2.12597C15.7308 2.18333 16.5773 2.48998 17.2702 3.05504C17.914 3.58002 18.3423 4.2978 18.5649 5.17018C18.784 6.02913 18.8013 6.91702 18.8149 7.90888C18.8259 8.71822 18.8351 9.52509 18.8371 10.3311C18.8351 11.1372 18.8259 11.9441 18.8149 12.7534C18.8013 13.7452 18.784 14.6332 18.5649 15.4922C18.3423 16.3645 17.914 17.0822 17.2702 17.6073C16.5773 18.1724 15.7308 18.479 14.7875 18.5363C13.3667 18.6228 11.9428 18.657 10.5162 18.6537H10.5144H10.5126Z" fill="white"/>
<path fill-rule="evenodd" clip-rule="evenodd" d="M5.7207 10.3316C5.7207 12.9776 7.86581 15.1227 10.5118 15.1227C13.1578 15.1227 15.3029 12.9776 15.3029 10.3316C15.3029 7.68562 13.1578 5.54053 10.5118 5.54053C7.86581 5.54053 5.7207 7.68562 5.7207 10.3316ZM10.5118 13.5895C8.71247 13.5895 7.25391 12.131 7.25391 10.3316C7.25391 8.53228 8.71247 7.07372 10.5118 7.07372C12.3112 7.07372 13.7697 8.53228 13.7697 10.3316C13.7697 12.131 12.3112 13.5895 10.5118 13.5895Z" fill="white"/>
<path d="M16.9968 4.97643C16.9968 5.59901 16.4921 6.10375 15.8695 6.10375C15.2469 6.10375 14.7422 5.59901 14.7422 4.97643C14.7422 4.35386 15.2469 3.84912 15.8695 3.84912C16.4921 3.84912 16.9968 4.35386 16.9968 4.97643Z" fill="white"/>
</svg>
