<svg width="50" height="50" viewBox="0 0 50 50" fill="none" xmlns="http://www.w3.org/2000/svg">
<path d="M23.6483 39.9609C23.8124 39.9609 23.9764 40.0078 24.1405 40.0234V42.9688C24.1405 43.5904 23.8936 44.1865 23.454 44.626C23.0145 45.0656 22.4183 45.3125 21.7967 45.3125C21.1751 45.3125 20.579 45.0656 20.1395 44.626C19.6999 44.1865 19.453 43.5904 19.453 42.9688C19.453 42.5543 19.2884 42.1569 18.9953 41.8639C18.7023 41.5709 18.3049 41.4062 17.8905 41.4062C17.4761 41.4062 17.0787 41.5709 16.7856 41.8639C16.4926 42.1569 16.328 42.5543 16.328 42.9688C16.328 44.4192 16.9042 45.8102 17.9297 46.8357C18.9553 47.8613 20.3463 48.4375 21.7967 48.4375C23.2471 48.4375 24.6381 47.8613 25.6637 46.8357C26.6893 45.8102 27.2655 44.4192 27.2655 42.9688V39.9219C29.998 39.494 32.4898 38.1097 34.2967 36.0156C35.5354 34.513 36.3042 32.6789 36.507 30.7421C36.7099 28.8053 36.3379 26.8517 35.4374 25.125C34.6584 23.6658 33.4698 22.4661 32.018 21.6735C30.5661 20.881 28.9142 20.5301 27.2655 20.6641V16.8047C28.919 16.2204 30.4935 15.4332 31.953 14.4609C33.1916 13.6342 34.1867 12.4913 34.8351 11.1506C35.4834 9.8099 35.7615 8.32024 35.6405 6.83594C35.2889 3.75 33.0155 1.5625 30.203 1.5625H30.1092C28.5516 1.5838 27.0621 2.20463 25.9505 3.29591C24.8389 4.38718 24.1906 5.86492 24.1405 7.42188V14.6641C19.5311 16.5 14.4608 19.5312 13.5546 26.0625C13.3105 27.7025 13.3918 29.3745 13.7939 30.9831C14.1961 32.5917 14.9112 34.1053 15.8983 35.4375C17.7956 37.8952 20.5753 39.5176 23.6483 39.9609ZM27.2655 7.40625C27.3166 6.67242 27.6426 5.98487 28.1785 5.48089C28.7143 4.97691 29.4205 4.69359 30.1561 4.6875H30.203C31.6171 4.6875 32.3827 5.9375 32.5467 7.1875C32.6112 8.11252 32.428 9.03802 32.0161 9.86876C31.6042 10.6995 30.9783 11.4055 30.203 11.9141C29.3011 12.5371 28.3345 13.061 27.3202 13.4766L27.2655 7.40625ZM27.2655 23.8125C28.3421 23.6599 29.4397 23.8419 30.4095 24.3338C31.3792 24.8256 32.1744 25.6037 32.6874 26.5625C33.2894 27.7425 33.5361 29.0719 33.3974 30.3893C33.2587 31.7067 32.7407 32.9556 31.9061 33.9844C30.6874 35.3902 29.0404 36.3565 27.2186 36.7344L27.2655 23.8125ZM16.6483 26.4922C17.1717 22.7656 19.4452 20.1641 24.1405 18.0469V21.6094C22.6792 22.3896 21.4153 23.4932 20.4452 24.8359C20.3121 24.9997 20.2136 25.1887 20.1555 25.3916C20.0975 25.5945 20.0812 25.8071 20.1075 26.0164C20.1339 26.2258 20.2024 26.4277 20.3089 26.6099C20.4154 26.7921 20.5577 26.9508 20.7272 27.0765C20.8967 27.2021 21.0899 27.2922 21.2952 27.3412C21.5005 27.3901 21.7135 27.397 21.9215 27.3614C22.1295 27.3258 22.3281 27.2484 22.5054 27.1339C22.6827 27.0194 22.8349 26.8702 22.953 26.6953C23.3013 26.2218 23.6994 25.787 24.1405 25.3984V36.875C21.8598 36.5465 19.7985 35.3377 18.3983 33.5078C16.9107 31.4925 16.2815 28.9701 16.6483 26.4922Z" fill="#5A76FF"/>
</svg>
