<svg width="218" height="38" viewBox="0 0 218 38" fill="none" xmlns="http://www.w3.org/2000/svg">
<path d="M20.6263 14.4542H15.7466C14.7707 12.6606 13.0299 11.7374 10.7879 11.7374C7.01609 11.7374 4.37847 14.4278 4.37847 18.648C4.37847 22.9474 7.04247 25.6114 10.9725 25.6114C14.2432 25.6114 16.3269 23.7386 16.96 20.7318H9.6801V17.4875H21.1274V21.1802C20.2834 25.4795 16.4324 29.4096 10.8143 29.4096C4.6686 29.4096 0 24.952 0 18.6217C0 12.2913 4.6686 7.80737 10.7879 7.80737C15.5093 7.83375 19.2811 10.2076 20.6263 14.4542Z" fill="#0A163D"/>
<path d="M28.3276 29.2249H24.0811V12.4495H28.3276V15.0608C29.3827 13.3463 31.1499 12.2122 33.471 12.2122V16.6697H32.3632C29.8575 16.6697 28.3276 17.6457 28.3276 20.89V29.2249Z" fill="#0A163D"/>
<path d="M76.0689 12.4497L80.3155 25.3213L84.5621 12.4497H89.0724L82.874 29.225H77.7306L71.5586 12.4497H76.0689Z" fill="#0A163D"/>
<path d="M98.7793 29.515C93.8997 29.515 90.3652 26.1125 90.3652 20.8636C90.3652 15.5619 93.8205 12.2122 98.7793 12.2122C103.633 12.2122 107.035 15.5092 107.035 20.5207C107.035 21.0746 107.009 21.6021 106.903 22.156H94.6382C94.8492 24.6354 96.5373 26.0333 98.6738 26.0333C100.494 26.0333 101.496 25.1365 102.024 24.0024H106.587C105.716 27.062 102.92 29.515 98.7793 29.515ZM94.691 19.281H102.657C102.604 17.0654 100.837 15.6674 98.6474 15.6674C96.6164 15.6674 95.0075 16.9599 94.691 19.281Z" fill="#0A163D"/>
<path d="M129.586 11.5266H121.568V16.8282H128.689V20.178H121.568V25.7698H129.586V29.2251H117.321V8.07129H129.586V11.5266Z" fill="#0A163D"/>
<path d="M145.201 19.9668C145.201 17.2764 143.724 15.8257 141.482 15.8257C139.188 15.8257 137.71 17.2764 137.71 19.9668V29.2249H133.464V12.4495H137.71V14.5333C138.792 13.1089 140.612 12.2122 142.775 12.2122C146.678 12.2122 149.474 14.7443 149.474 19.3865V29.2249H145.228V19.9668H145.201Z" fill="#0A163D"/>
<path d="M160.025 12.1858C162.663 12.1858 164.562 13.3991 165.564 14.8498V12.4496H169.837V29.3568C169.837 33.8935 167.041 37.507 161.529 37.507C156.807 37.507 153.51 35.1332 153.088 31.3086H157.308C157.73 32.812 159.313 33.8143 161.423 33.8143C163.744 33.8143 165.564 32.4692 165.564 29.3568V26.7455C164.562 28.1962 162.663 29.4886 160.025 29.4886C155.752 29.4886 152.376 26.007 152.376 20.7581C152.376 15.5356 155.752 12.1858 160.025 12.1858ZM161.107 15.9048C158.838 15.9048 156.675 17.5929 156.675 20.7845C156.675 23.976 158.838 25.7696 161.107 25.7696C163.428 25.7696 165.564 24.0024 165.564 20.8372C165.564 17.6721 163.454 15.9048 161.107 15.9048Z" fill="#0A163D"/>
<path d="M173.978 12.4497H178.224V29.225H173.978V12.4497Z" fill="#0A163D"/>
<path d="M194.155 19.9668C194.155 17.2764 192.678 15.8257 190.436 15.8257C188.142 15.8257 186.665 17.2764 186.665 19.9668V29.2249H182.418V12.4495H186.665V14.5333C187.746 13.1089 189.566 12.2122 191.729 12.2122C195.632 12.2122 198.428 14.7443 198.428 19.3865V29.2249H194.182V19.9668H194.155Z" fill="#0A163D"/>
<path d="M209.744 29.515C204.865 29.515 201.33 26.1125 201.33 20.8636C201.33 15.5619 204.785 12.2122 209.744 12.2122C214.597 12.2122 218 15.5092 218 20.5207C218 21.0746 217.974 21.6021 217.868 22.156H205.603C205.814 24.6354 207.502 26.0333 209.639 26.0333C211.459 26.0333 212.461 25.1365 212.988 24.0024H217.551C216.681 27.062 213.885 29.515 209.744 29.515ZM205.656 19.281H213.621C213.569 17.0654 211.801 15.6674 209.612 15.6674C207.581 15.6674 205.999 16.9599 205.656 19.281Z" fill="#0A163D"/>
<path d="M58.1857 11.5264C55.3107 11.5527 52.7786 12.9243 51.1433 15.0344C50.0355 16.4587 49.3761 18.2259 49.2969 20.1514C49.2969 20.1514 49.2969 20.6526 49.2969 20.8108C49.1387 23.5803 46.8176 25.7696 44.0217 25.7696C41.0939 25.7696 38.7464 23.3957 38.7464 20.4943C38.7464 17.5665 41.1203 15.219 44.0217 15.219C45.9999 15.219 47.7407 16.3005 48.6375 17.9358C49.0068 16.5906 49.6398 15.3509 50.4839 14.2959C48.8485 12.5814 46.5538 11.5264 43.9953 11.5264C39.0365 11.5264 35.001 15.5619 35.001 20.5207C35.001 25.4794 39.0365 29.515 43.9953 29.515C46.0526 29.515 47.9781 28.8292 49.4816 27.6423C50.1146 27.1675 50.6421 26.6136 51.1169 26.0069C51.1433 25.9806 51.4334 25.5586 51.5125 25.453C51.6972 25.1629 51.8818 24.8728 52.0401 24.5562C52.3038 24.0023 52.5412 23.3693 52.5676 23.2111C52.6467 22.9737 52.7786 22.4725 52.8841 21.8131C52.9369 21.4175 52.9632 20.5734 52.9632 20.5471C52.9632 17.6457 55.3107 15.2718 58.2121 15.2718V11.5527C58.2385 11.5264 58.2121 11.5264 58.1857 11.5264Z" fill="url(#paint0_linear_2056_20)"/>
<path d="M44.0219 11.5264C43.5735 11.5264 43.1515 11.5527 42.7295 11.6319V15.4037C43.1515 15.2982 43.5735 15.2454 44.0219 15.2454C46.0002 15.2454 47.741 16.3268 48.6378 17.9622C49.0071 16.617 49.6401 15.3773 50.4841 14.3223C48.8752 12.5814 46.5541 11.5264 44.0219 11.5264Z" fill="url(#paint1_linear_2056_20)"/>
<path d="M69.1847 22.5516H67.0746C66.1514 26.5344 62.5906 29.515 58.3176 29.515C55.8119 29.515 53.5435 28.4863 51.9082 26.8246C52.0401 26.6399 52.172 26.4553 52.3038 26.2707C52.4885 25.9805 52.6731 25.6904 52.8314 25.3739C52.9896 25.0574 53.1215 24.7409 53.2534 24.4243C53.3061 24.2925 53.3325 24.1606 53.3853 24.0551C53.438 23.8968 53.4908 23.7122 53.5172 23.5539C53.5435 23.422 53.5699 23.3165 53.5963 23.1847C53.6227 23.1055 53.6227 23 53.649 22.9209C54.5195 24.6353 56.313 25.8223 58.3704 25.8223C60.5596 25.8223 62.4587 24.4771 63.25 22.578H61.2718L65.2282 18.7007L69.1847 22.5516Z" fill="url(#paint2_linear_2056_20)"/>
<path d="M57.2626 25.6904C55.6537 25.3739 54.2821 24.3189 53.5699 22.8945C53.5699 22.9737 53.5436 23.0792 53.5172 23.1583C53.4908 23.2902 53.4644 23.3957 53.438 23.5276C53.4117 23.6858 53.3589 23.8705 53.3062 24.0287C53.2534 24.1606 53.227 24.2925 53.1743 24.398C53.0424 24.7145 52.9105 25.0574 52.7523 25.3475C52.594 25.664 52.4358 25.9542 52.2247 26.2443C52.1192 26.429 51.9874 26.6136 51.8291 26.7982C53.2534 28.2225 55.1261 29.1985 57.2362 29.4358V25.6904H57.2626Z" fill="url(#paint3_linear_2056_20)"/>
<path d="M65.2282 0C65.2282 0 59.9793 3.85094 62.5114 12.2386L60.4805 14.1641V19.1228L64.1204 16.4324L65.2282 17.5402L66.336 16.4324L69.9759 19.1492V14.1904L67.945 12.2914C70.4507 3.85094 65.2282 0 65.2282 0ZM66.2569 8.57229C65.7293 9.09982 64.8589 9.09982 64.3314 8.57229C63.8039 8.04477 63.8039 7.17435 64.3314 6.64683C64.8589 6.1193 65.7293 6.1193 66.2569 6.64683C66.8108 7.17435 66.8108 8.04477 66.2569 8.57229Z" fill="url(#paint4_linear_2056_20)"/>
<path d="M179.2 8.0183C179.2 8.0183 176.536 8.38757 176.114 10.9724C175.666 8.3612 173.028 8.0183 173.028 8.0183C175.587 7.30614 176.062 5.85545 176.114 5.19604C176.167 5.82908 176.642 7.27977 179.2 8.0183Z" fill="url(#paint5_linear_2056_20)"/>
<defs>
<linearGradient id="paint0_linear_2056_20" x1="33.2197" y1="20.3196" x2="62.26" y2="20.6361" gradientUnits="userSpaceOnUse">
<stop stop-color="#FF8749"/>
<stop offset="1" stop-color="#FE4269"/>
</linearGradient>
<linearGradient id="paint1_linear_2056_20" x1="40.6583" y1="11.5202" x2="51.4594" y2="17.0394" gradientUnits="userSpaceOnUse">
<stop offset="0.2645" stop-color="#FF6E55" stop-opacity="0"/>
<stop offset="0.6677" stop-color="#583245" stop-opacity="0.4606"/>
<stop offset="0.8685" stop-color="#0A163D" stop-opacity="0.69"/>
</linearGradient>
<linearGradient id="paint2_linear_2056_20" x1="33.1821" y1="23.7742" x2="62.2224" y2="24.0908" gradientUnits="userSpaceOnUse">
<stop stop-color="#FF8749"/>
<stop offset="1" stop-color="#FE4269"/>
</linearGradient>
<linearGradient id="paint3_linear_2056_20" x1="60.7069" y1="30.3203" x2="48.0463" y2="21.8337" gradientUnits="userSpaceOnUse">
<stop offset="0.3499" stop-color="#FE4B65" stop-opacity="0"/>
<stop offset="0.3517" stop-color="#FD4B65" stop-opacity="0.01"/>
<stop offset="0.4705" stop-color="#9B3555" stop-opacity="0.2265"/>
<stop offset="0.5664" stop-color="#532549" stop-opacity="0.4067"/>
<stop offset="0.6348" stop-color="#261C42" stop-opacity="0.5352"/>
<stop offset="0.6693" stop-color="#15183F" stop-opacity="0.6"/>
</linearGradient>
<linearGradient id="paint4_linear_2056_20" x1="60.4619" y1="9.56961" x2="69.9723" y2="9.56961" gradientUnits="userSpaceOnUse">
<stop stop-color="#00E2FD"/>
<stop offset="1" stop-color="#0097FB"/>
</linearGradient>
<linearGradient id="paint5_linear_2056_20" x1="173.009" y1="8.06689" x2="179.197" y2="8.06689" gradientUnits="userSpaceOnUse">
<stop stop-color="#00E2FD"/>
<stop offset="1" stop-color="#0097FB"/>
</linearGradient>
</defs>
</svg>
