<svg width="232" height="12" viewBox="0 0 232 12" fill="none" xmlns="http://www.w3.org/2000/svg">
<path d="M188.264 8.24188C191.332 8.24188 194.402 8.27319 197.468 8.23582C203.822 8.15806 210.176 7.93286 216.527 7.98437C221.189 8.02274 225.886 8.18937 230.829 9.10532C230.16 9.2265 229.826 9.33052 229.485 9.34062C227.355 9.40929 225.223 9.47594 223.091 9.50725C215.852 9.6153 208.614 9.72336 201.374 9.80515C191.686 9.91422 181.995 9.96774 172.307 10.101C164.078 10.2131 155.852 10.405 147.625 10.5585C146.792 10.5747 145.958 10.5706 145.125 10.5747C138.562 10.604 131.998 10.6181 125.435 10.6666C116.631 10.7322 107.825 10.7635 99.0239 10.9221C87.9861 11.121 76.9525 11.4472 65.9161 11.6946C59.932 11.8289 53.9436 12.0097 47.9567 11.9996C41.5521 11.9905 35.1391 11.8804 28.7473 11.63C23.2447 11.4139 17.7819 10.8776 12.3475 10.2444C8.92012 9.84454 5.45721 9.5638 2.11788 8.90032C1.62216 8.80236 1.02986 8.78721 0.650614 8.59736C0.298357 8.42164 -0.0425364 8.049 0.00433645 7.79249C0.0512093 7.54003 0.531301 7.24817 0.937532 7.11689C1.31962 6.99369 1.8551 7.02701 2.31673 7.04822C9.38033 7.36027 16.4411 7.69858 23.5075 7.99447C26.6764 8.12676 29.8538 8.24491 33.0284 8.25703C44.2282 8.30046 55.4322 8.37115 66.6305 8.2843C75.1188 8.21866 83.5999 7.88843 92.0882 7.7521C100.629 7.61476 109.173 7.57638 117.716 7.48549C128.707 7.36835 139.697 7.2512 150.686 7.1179C161.207 6.98965 171.729 6.87856 182.247 6.68265C188.231 6.57055 194.213 6.34939 200.187 6.09289C208.142 5.75054 216.024 5.04364 223.777 3.83382C225.272 3.60155 226.723 3.25112 228.494 2.89464C227.998 2.71993 227.842 2.62097 227.671 2.61188C222.694 2.3271 217.724 1.94436 212.736 1.80803C208.53 1.6929 204.303 1.86761 200.086 1.91204C192.22 1.99586 184.354 2.03727 176.491 2.17562C171.756 2.25843 167.028 2.4806 162.299 2.65833C158.713 2.79365 155.126 2.95321 151.541 3.11176C146.294 3.34302 141.046 3.57529 135.801 3.8217C128.115 4.18323 120.428 4.52961 112.748 4.93659C108.339 5.16987 103.947 5.52837 99.5424 5.79902C96.5368 5.98382 93.5256 6.15247 90.5115 6.26557C80.4253 6.64629 70.342 7.05933 60.2487 7.34209C53.8513 7.52185 47.4382 7.57739 41.0365 7.52387C37.3009 7.49155 33.5696 7.14012 29.8396 6.91391C29.2573 6.87856 28.628 6.83918 27.9917 6.412C29.0314 6.24538 29.8481 6.26658 30.6947 6.39888C31.4432 6.51602 32.2031 6.63822 32.9687 6.67457C40.3619 7.02499 47.7493 6.97551 55.1382 6.58873C57.7318 6.45341 60.3439 6.47664 62.9404 6.35848C72.4967 5.9202 82.056 5.50515 91.601 4.979C98.3421 4.60737 105.056 4.04892 111.789 3.61468C115.881 3.3511 119.986 3.16125 124.085 2.94917C134.051 2.43414 144.015 1.92113 153.98 1.41822C158.393 1.19605 162.811 1.01629 167.224 0.79311C175.434 0.378055 183.666 0.478032 191.886 0.319483C196.884 0.223545 201.883 0.147805 206.881 0.0276314C212.264 -0.102641 217.595 0.249802 222.929 0.622443C224.221 0.712321 225.534 0.705252 226.818 0.825426C228.042 0.939541 229.311 1.05769 230.435 1.35863C232.292 1.85549 232.509 2.83304 231.018 3.69042C230.377 4.05902 229.586 4.36905 228.776 4.56193C227.126 4.95578 225.439 5.31024 223.727 5.57685C216.33 6.73314 208.809 7.4047 201.214 7.73594C196.906 7.92377 192.592 8.06213 188.281 8.2227C188.274 8.22976 188.268 8.23582 188.261 8.24289L188.264 8.24188ZM53.5814 10.4383C53.5885 10.3525 53.5914 10.2657 53.597 10.1798H34.1391V10.1899C40.6204 10.2727 47.1016 10.3555 53.5828 10.4383H53.5814ZM60.2445 10.1869C60.2445 10.195 60.2516 10.202 60.2516 10.2101H62.4248C62.4248 10.202 62.4248 10.195 62.4248 10.1869H60.2445Z" fill="#FD7351"/>
</svg>
