<svg width="40" height="40" viewBox="0 0 40 40" fill="none" xmlns="http://www.w3.org/2000/svg">
<circle cx="20" cy="20" r="20" fill="#0A213A"/>
<path d="M15 16C15 15.2636 15.597 14.6666 16.3333 14.6666H17.6667C18.403 14.6666 19 15.2636 19 16V24C19 24.7364 18.403 25.3333 17.6667 25.3333H16.3333C15.597 25.3333 15 24.7364 15 24V16Z" stroke="white" stroke-linejoin="round"/>
<path d="M21 16C21 15.2636 21.5969 14.6666 22.3333 14.6666H23.6667C24.4031 14.6666 25 15.2636 25 16V24C25 24.7364 24.4031 25.3333 23.6667 25.3333H22.3333C21.5969 25.3333 21 24.7364 21 24V16Z" stroke="white" stroke-linejoin="round"/>
</svg>
