<svg width="109" height="97" viewBox="0 0 109 97" fill="none" xmlns="http://www.w3.org/2000/svg">
<path d="M13.0286 61.0942L67.292 89.5439C69.7571 90.8363 72.7917 90.209 74.5425 88.0453L102.972 52.9096C106.375 48.7038 102.723 42.5317 97.398 43.4903L82.1891 46.2289C79.1217 46.7813 76.1612 44.8271 75.4635 41.7893L71.5894 24.92C70.788 21.4303 67.063 19.4773 63.7366 20.8029L47.6583 27.2114C44.7629 28.3654 41.4717 27.0419 40.1814 24.2048L33.7839 10.1382C31.5439 5.21326 24.3898 5.71992 22.8662 10.9112L10.1375 54.2786C9.35374 56.9492 10.5638 59.802 13.0286 61.0942Z" fill="#FFB743"/>
</svg>
