<svg width="245" height="79" viewBox="0 0 245 79" fill="none" xmlns="http://www.w3.org/2000/svg">
<rect width="245" height="79" rx="10" fill="white"/>
<path d="M20.616 59H19.096L24.088 47.672H25.352L30.168 59H28.6L27.448 56.216H21.784L20.616 59ZM22.312 54.968H26.936L24.696 49.4H24.664L22.312 54.968ZM30.4256 51.512H31.8816L34.2176 57.384H34.2496L36.4736 51.512H37.8176L34.8576 59H33.4816L30.4256 51.512ZM42.5764 51.32C44.5284 51.32 46.1284 52.552 46.1284 55.336V55.64H40.0804C40.2084 57.032 41.2324 58.04 42.5444 58.04C43.5844 58.04 44.3204 57.672 44.9124 56.904L45.8564 57.64C45.0724 58.664 44.0644 59.192 42.5444 59.192C40.2244 59.192 38.7364 57.496 38.7364 55.256C38.7364 52.952 40.3524 51.32 42.5764 51.32ZM44.7844 54.584C44.7204 53.288 43.9044 52.472 42.5124 52.472C41.2324 52.472 40.2724 53.224 40.0804 54.584H44.7844ZM51.739 51.32C51.931 51.32 52.075 51.336 52.251 51.4L52.171 52.664C51.931 52.6 51.739 52.568 51.499 52.568C50.059 52.568 49.307 53.56 49.307 55.288V59H48.059V53.176C48.059 52.68 47.995 51.96 47.995 51.512H49.179C49.179 51.976 49.211 52.248 49.211 52.744H49.243C49.643 51.896 50.635 51.32 51.739 51.32ZM56.036 59.192C54.404 59.192 53.252 58.328 53.252 56.968C53.252 55.24 54.548 54.344 57.876 54.344H58.452V54.136C58.452 53.032 57.764 52.472 56.596 52.472C55.78 52.472 54.964 52.728 54.372 53.288L53.588 52.472C54.356 51.704 55.46 51.32 56.564 51.32C58.724 51.32 59.7 52.36 59.7 54.408V57.768C59.7 58.024 59.732 58.488 59.812 59H58.612C58.548 58.808 58.532 58.52 58.532 57.88H58.5C57.94 58.728 57.076 59.192 56.036 59.192ZM57.076 55.4C55.604 55.4 54.596 55.864 54.596 56.84C54.596 57.688 55.188 58.136 56.244 58.136C57.54 58.136 58.452 57.288 58.452 55.688V55.4H57.076ZM61.5489 55.256C61.5489 52.872 63.1009 51.32 65.5169 51.32C66.6529 51.32 67.7249 51.896 68.1729 52.792H68.2049V51.512H69.4529V58.744C69.4529 61.256 68.0769 62.84 65.3729 62.84C63.9169 62.84 62.7329 62.456 61.6929 61.416L62.5889 60.392C63.3729 61.24 64.2209 61.688 65.3729 61.688C67.2769 61.688 68.2049 60.648 68.2049 58.68V57.704H68.1729C67.6129 58.584 66.6369 59.096 65.5169 59.096C63.2129 59.096 61.5489 57.48 61.5489 55.256ZM65.5169 52.472C64.0129 52.472 62.8929 53.656 62.8929 55.256C62.8929 56.76 64.0609 57.944 65.5329 57.944C67.1489 57.944 68.2049 56.76 68.2049 55.224C68.2049 53.608 67.1169 52.472 65.5169 52.472ZM75.1701 51.32C77.1221 51.32 78.7221 52.552 78.7221 55.336V55.64H72.6741C72.8021 57.032 73.8261 58.04 75.1381 58.04C76.1781 58.04 76.9141 57.672 77.5061 56.904L78.4501 57.64C77.6661 58.664 76.6581 59.192 75.1381 59.192C72.8181 59.192 71.3301 57.496 71.3301 55.256C71.3301 52.952 72.9461 51.32 75.1701 51.32ZM77.3781 54.584C77.3141 53.288 76.4981 52.472 75.1061 52.472C73.8261 52.472 72.8661 53.224 72.6741 54.584H77.3781ZM88.7859 51.32C88.9779 51.32 89.1219 51.336 89.2979 51.4L89.2179 52.664C88.9779 52.6 88.7859 52.568 88.5459 52.568C87.1059 52.568 86.3539 53.56 86.3539 55.288V59H85.1059V53.176C85.1059 52.68 85.0419 51.96 85.0419 51.512H86.2259C86.2259 51.976 86.2579 52.248 86.2579 52.744H86.2899C86.6899 51.896 87.6819 51.32 88.7859 51.32ZM93.0829 59.192C91.4509 59.192 90.2989 58.328 90.2989 56.968C90.2989 55.24 91.5949 54.344 94.9229 54.344H95.4989V54.136C95.4989 53.032 94.8109 52.472 93.6429 52.472C92.8269 52.472 92.0109 52.728 91.4189 53.288L90.6349 52.472C91.4029 51.704 92.5069 51.32 93.6109 51.32C95.7709 51.32 96.7469 52.36 96.7469 54.408V57.768C96.7469 58.024 96.7789 58.488 96.8589 59H95.6589C95.5949 58.808 95.5789 58.52 95.5789 57.88H95.5469C94.9869 58.728 94.1229 59.192 93.0829 59.192ZM94.1229 55.4C92.6509 55.4 91.6429 55.864 91.6429 56.84C91.6429 57.688 92.2349 58.136 93.2909 58.136C94.5869 58.136 95.4989 57.288 95.4989 55.688V55.4H94.1229ZM99.6678 52.568H98.0358V51.512H99.6678V49.384H100.916V51.512H103.124V52.568H100.916V56.568C100.916 57.768 101.316 58.04 102.036 58.04C102.404 58.04 102.82 57.96 103.14 57.784L103.188 58.92C102.74 59.112 102.196 59.192 101.732 59.192C100.292 59.192 99.6678 58.616 99.6678 56.76V52.568ZM105.389 47.672C105.885 47.672 106.301 48.072 106.301 48.584C106.301 49.112 105.917 49.496 105.389 49.496C104.861 49.496 104.477 49.112 104.477 48.584C104.477 48.072 104.893 47.672 105.389 47.672ZM106.013 51.512V59H104.765V51.512H106.013ZM108.433 51.512H109.617C109.617 51.976 109.649 52.248 109.649 52.744H109.681C110.081 51.896 111.073 51.32 112.177 51.32C114.081 51.32 115.025 52.504 115.025 54.312V59H113.777V54.456C113.777 53.304 113.265 52.472 112.065 52.472C110.529 52.472 109.745 53.544 109.745 55.336V59H108.497V53.176C108.497 52.68 108.433 51.96 108.433 51.512ZM116.955 55.256C116.955 52.872 118.507 51.32 120.923 51.32C122.059 51.32 123.131 51.896 123.579 52.792H123.611V51.512H124.859V58.744C124.859 61.256 123.483 62.84 120.779 62.84C119.323 62.84 118.139 62.456 117.099 61.416L117.995 60.392C118.779 61.24 119.627 61.688 120.779 61.688C122.683 61.688 123.611 60.648 123.611 58.68V57.704H123.579C123.019 58.584 122.043 59.096 120.923 59.096C118.619 59.096 116.955 57.48 116.955 55.256ZM120.923 52.472C119.419 52.472 118.299 53.656 118.299 55.256C118.299 56.76 119.467 57.944 120.939 57.944C122.555 57.944 123.611 56.76 123.611 55.224C123.611 53.608 122.523 52.472 120.923 52.472ZM135.19 51.32C137.51 51.32 139.19 52.936 139.19 55.256C139.19 57.56 137.51 59.192 135.19 59.192C132.87 59.192 131.19 57.56 131.19 55.256C131.19 52.968 132.838 51.32 135.19 51.32ZM132.534 55.256C132.534 56.872 133.622 58.04 135.19 58.04C136.79 58.04 137.846 56.84 137.846 55.256C137.846 53.672 136.79 52.472 135.174 52.472C133.606 52.472 132.534 53.672 132.534 55.256ZM140.13 51.512H141.762V49.816C141.762 47.768 142.61 46.712 144.402 46.712C144.738 46.712 145.138 46.776 145.378 46.904L145.202 48.024C144.898 47.912 144.53 47.864 144.354 47.864C143.41 47.864 143.01 48.28 143.01 49.832V51.512H144.834V52.568H143.01V59H141.762V52.568H140.13V51.512Z" fill="#767574"/>
<path d="M157.517 47.672V49.4H152.958L152.91 51.656C153.198 51.576 153.614 51.512 154.126 51.512C156.35 51.512 157.902 52.984 157.902 55.272C157.902 57.64 156.19 59.192 153.806 59.192C151.966 59.192 150.654 58.296 150.142 56.6L152.158 56.056C152.43 56.888 153.038 57.368 154.014 57.368C155.15 57.368 155.982 56.536 155.982 55.432C155.982 53.992 154.942 53.24 153.326 53.24C152.494 53.24 151.646 53.448 150.958 53.784L151.07 47.672H157.517ZM161.274 56.632C161.946 56.632 162.554 57.144 162.554 57.848C162.554 58.552 161.962 59.096 161.274 59.096C160.602 59.096 159.994 58.568 159.994 57.88C159.994 57.176 160.586 56.632 161.274 56.632ZM168.377 47.48C170.953 47.48 172.473 49.464 172.473 53.336C172.473 57.192 170.969 59.192 168.377 59.192C165.785 59.192 164.281 57.192 164.281 53.336C164.281 49.464 165.801 47.48 168.377 47.48ZM166.201 53.336C166.201 55.768 166.905 57.368 168.377 57.368C169.817 57.368 170.553 55.848 170.553 53.336C170.553 50.792 169.817 49.304 168.361 49.304C166.969 49.304 166.201 50.776 166.201 53.336Z" fill="#011A38"/>
<path d="M27.705 19L29.6593 25.015H35.9839L30.8672 28.7324L32.8216 34.7474L27.705 31.0299L22.5883 34.7474L24.5427 28.7324L19.4261 25.015H25.7506L27.705 19Z" fill="#FFA800"/>
<path d="M52.8534 19L54.8078 25.015H61.1323L56.0156 28.7324L57.97 34.7474L52.8534 31.0299L47.7367 34.7474L49.6911 28.7324L44.5745 25.015H50.899L52.8534 19Z" fill="#FFA800"/>
<path d="M78.0018 19L79.9562 25.015H86.2807L81.1641 28.7324L83.1185 34.7474L78.0018 31.0299L72.8852 34.7474L74.8396 28.7324L69.7229 25.015H76.0474L78.0018 19Z" fill="#FFA800"/>
<path d="M103.15 19L105.105 25.015H111.429L106.313 28.7324L108.267 34.7474L103.15 31.0299L98.0336 34.7474L99.988 28.7324L94.8714 25.015H101.196L103.15 19Z" fill="#FFA800"/>
<path d="M128.295 19L130.249 25.015H136.574L131.457 28.7324L133.411 34.7474L128.295 31.0299L123.178 34.7474L125.133 28.7324L120.016 25.015H126.34L128.295 19Z" fill="#FFA800"/>
</svg>
