<svg width="106" height="18" viewBox="0 0 106 18" fill="none" xmlns="http://www.w3.org/2000/svg">
<path d="M8.83333 0L10.8165 6.10368H17.2343L12.0422 9.87597L14.0254 15.9796L8.83333 12.2074L3.64123 15.9796L5.62444 9.87597L0.432334 6.10368H6.85013L8.83333 0Z" fill="#FF9E0D"/>
<path d="M30.9173 0L32.9005 6.10368H39.3183L34.1262 9.87597L36.1094 15.9796L30.9173 12.2074L25.7252 15.9796L27.7084 9.87597L22.5163 6.10368H28.9341L30.9173 0Z" fill="#FF9E0D"/>
<path d="M52.9993 0L54.9826 6.10368H61.4003L56.2082 9.87597L58.1915 15.9796L52.9993 12.2074L47.8072 15.9796L49.7905 9.87597L44.5983 6.10368H51.0161L52.9993 0Z" fill="#FF9E0D"/>
<path d="M75.0833 0L77.0665 6.10368H83.4843L78.2922 9.87597L80.2754 15.9796L75.0833 12.2074L69.8912 15.9796L71.8744 9.87597L66.6823 6.10368H73.1001L75.0833 0Z" fill="#FF9E0D"/>
<path d="M97.1673 0L99.1505 6.10368H105.568L100.376 9.87597L102.359 15.9796L97.1673 12.2074L91.9752 15.9796L93.9584 9.87597L88.7663 6.10368H95.1841L97.1673 0Z" fill="#FF9E0D"/>
</svg>
