<svg width="381" height="12" viewBox="0 0 381 12" fill="none" xmlns="http://www.w3.org/2000/svg">
<path d="M309.175 8.24188C314.214 8.24188 319.254 8.27319 324.291 8.23582C334.724 8.15806 345.16 7.93286 355.59 7.98437C363.245 8.02274 370.959 8.18937 379.077 9.10532C377.978 9.2265 377.43 9.33052 376.87 9.34062C373.371 9.40929 369.87 9.47594 366.369 9.50725C354.482 9.6153 342.595 9.72336 330.705 9.80515C314.794 9.91422 298.879 9.96774 282.97 10.101C269.455 10.2131 255.947 10.405 242.436 10.5585C241.067 10.5747 239.698 10.5706 238.331 10.5747C227.552 10.604 216.773 10.6181 205.994 10.6666C191.536 10.7322 177.074 10.7635 162.621 10.9221C144.494 11.121 126.375 11.4472 108.25 11.6946C98.4228 11.8289 88.5884 12.0097 78.7564 11.9996C68.2386 11.9905 57.7069 11.8804 47.2101 11.63C38.1735 11.4139 29.2022 10.8776 20.2776 10.2444C14.649 9.84454 8.96206 9.5638 3.47806 8.90032C2.66398 8.80236 1.69127 8.78721 1.06846 8.59736C0.489974 8.42164 -0.069855 8.049 0.0071215 7.79249C0.084098 7.54003 0.872524 7.24817 1.53965 7.11689C2.16713 6.99369 3.04653 7.02701 3.80463 7.04822C15.4048 7.36027 27.0002 7.69858 38.605 7.99447C43.8091 8.12676 49.0272 8.24491 54.2406 8.25703C72.6333 8.30046 91.033 8.37115 109.423 8.2843C123.363 8.21866 137.291 7.88843 151.231 7.7521C165.257 7.61476 179.288 7.57638 193.318 7.48549C211.368 7.36835 229.416 7.2512 247.463 7.1179C264.741 6.98965 282.021 6.87856 299.294 6.68265C309.121 6.57055 318.944 6.34939 328.755 6.09289C341.82 5.75054 354.764 5.04364 367.495 3.83382C369.952 3.60155 372.333 3.25112 375.242 2.89464C374.428 2.71993 374.171 2.62097 373.891 2.61188C365.718 2.3271 357.556 1.94436 349.364 1.80803C342.457 1.6929 335.515 1.86761 328.59 1.91204C315.672 1.99586 302.753 2.03727 289.84 2.17562C282.065 2.25843 274.3 2.4806 266.535 2.65833C260.645 2.79365 254.755 2.95321 248.868 3.11176C240.251 3.34302 231.632 3.57529 223.017 3.8217C210.396 4.18323 197.771 4.52961 185.159 4.93659C177.919 5.16987 170.706 5.52837 163.473 5.79902C158.537 5.98382 153.592 6.15247 148.642 6.26557C132.078 6.64629 115.519 7.05933 98.9429 7.34209C88.4368 7.52185 77.905 7.57739 67.3919 7.52387C61.2571 7.49155 55.1293 7.14012 49.0038 6.91391C48.0475 6.87856 47.0141 6.83918 45.9691 6.412C47.6766 6.24538 49.0178 6.26658 50.4081 6.39888C51.6374 6.51602 52.8853 6.63822 54.1426 6.67457C66.2839 7.02499 78.4159 6.97551 90.5502 6.58873C94.8095 6.45341 99.0992 6.47664 103.363 6.35848C119.057 5.9202 134.756 5.50515 150.431 4.979C161.502 4.60737 172.528 4.04892 183.584 3.61468C190.305 3.3511 197.046 3.16125 203.778 2.94917C220.144 2.43414 236.507 1.92113 252.873 1.41822C260.12 1.19605 267.375 1.01629 274.622 0.79311C288.105 0.378055 301.624 0.478032 315.123 0.319483C323.332 0.223545 331.54 0.147805 339.749 0.0276314C348.589 -0.102641 357.344 0.249802 366.103 0.622443C368.225 0.712321 370.381 0.705252 372.49 0.825426C374.5 0.939541 376.583 1.05769 378.431 1.35863C381.479 1.85549 381.836 2.83304 379.387 3.69042C378.335 4.05902 377.036 4.36905 375.706 4.56193C372.996 4.95578 370.225 5.31024 367.414 5.57685C355.265 6.73314 342.914 7.4047 330.442 7.73594C323.367 7.92377 316.283 8.06213 309.203 8.2227C309.191 8.22976 309.182 8.23582 309.17 8.24289L309.175 8.24188ZM87.9936 10.4383C88.0053 10.3525 88.0099 10.2657 88.0193 10.1798H56.0647V10.1899C66.7084 10.2727 77.3522 10.3555 87.9959 10.4383H87.9936ZM98.9359 10.1869C98.9359 10.195 98.9476 10.202 98.9476 10.2101H102.517C102.517 10.202 102.517 10.195 102.517 10.1869H98.9359Z" fill="#FD7351"/>
</svg>
