<svg width="277" height="355" viewBox="0 0 277 355" fill="none" xmlns="http://www.w3.org/2000/svg">
<mask id="mask0_2001_4" style="mask-type:alpha" maskUnits="userSpaceOnUse" x="0" y="0" width="277" height="355">
<rect width="277" height="355" fill="#D9D9D9"/>
</mask>
<g mask="url(#mask0_2001_4)">
<path d="M226.627 106.551C226.627 106.551 225.975 79.2242 216.841 53.7197C207.708 28.2153 183.671 8.52307 161.681 -0.233584C150.296 20.475 144.24 50.9962 153.357 76.4539C162.473 101.912 179.286 123.504 179.286 123.504L162.287 148.969L178.291 193.66L207.762 153.803L219.899 162.34L223.906 148.022L271.932 160.127L255.927 115.436L226.627 106.551ZM191.058 81.8019C184.336 84.2092 176.964 80.7772 174.585 74.132C172.205 67.4868 175.722 60.1555 182.444 57.7481C189.167 55.3408 196.538 58.7729 198.918 65.4181C201.298 72.0633 197.781 79.3946 191.058 81.8019Z" fill="#FD7351"/>
<path d="M133.977 127.639L147.149 164.422C126.319 171.881 113.06 190.937 112.205 211.518C111.896 217.965 112.847 224.646 115.159 231.104C116.869 235.878 118.182 240.74 119.003 245.567C121.711 260.437 120.544 275.375 116.052 289.232C115.978 289.47 115.903 289.708 115.828 289.947C115.722 290.248 115.647 290.486 115.541 290.788C114.969 292.472 114.333 294.125 113.649 295.795C104.189 319.194 84.9966 338.685 59.1484 347.942C11.2391 365.098 -41.3392 340.58 -58.2987 293.221C-75.2581 245.862 -50.1803 193.587 -2.27104 176.43C5.96631 173.48 14.3218 171.755 22.62 171.212C40.3721 169.924 57.8088 173.87 72.9262 182.078C72.7121 182.524 72.5927 182.937 72.426 183.366C72.3204 183.668 72.1981 183.923 72.0925 184.225C68.0619 196.386 66.4445 209.32 67.5933 222.372C67.7538 224.163 67.9478 226.047 68.2197 227.85C57.2963 215.395 40.7457 208.703 23.8574 210.315C19.5121 210.71 15.2091 211.67 10.901 213.213C-16.4621 223.012 -30.7749 252.847 -21.0885 279.896C-11.4022 306.944 18.6131 320.958 45.9763 311.159C66.9958 303.632 80.3433 284.227 80.9393 263.369C81.1563 257.114 80.1947 250.7 77.9491 244.43C70.8771 224.681 71.0973 204.116 77.2808 185.587C77.3864 185.286 77.4614 185.048 77.5669 184.746C86.2872 159.131 106.33 137.54 133.977 127.639Z" fill="#FD7351"/>
<path d="M275.5 197.392L256.28 204.275C260.135 244.869 235.967 284.622 195.396 299.151C191.466 300.558 187.531 301.65 183.56 302.492C161.615 307.288 139.421 303.778 120.711 293.741C120.847 293.376 120.967 292.963 121.103 292.598C121.209 292.296 121.284 292.058 121.372 291.709C125.975 277.865 127.477 262.966 125.309 248.114C138.338 262.719 159.125 269.161 179.018 263.41C180.077 263.084 181.182 262.741 182.224 262.368C201.965 255.299 214.902 237.73 216.939 218.363L201.317 223.957L225.294 173.977L275.5 197.392Z" fill="#FD7351"/>
<path d="M72.9265 182.078C72.7124 182.524 72.593 182.937 72.4262 183.366C72.3207 183.668 72.1983 183.923 72.0928 184.225C68.0622 196.386 66.4447 209.32 67.5936 222.372C67.754 224.163 67.948 226.047 68.2199 227.85C57.2966 215.395 40.7459 208.703 23.8577 210.315L22.6202 171.212C40.3723 169.924 57.809 173.87 72.9265 182.078Z" fill="#FD7351"/>
<path d="M179.019 263.41L183.56 302.492C161.616 307.288 139.422 303.778 120.712 293.741C120.848 293.376 120.967 292.963 121.103 292.598C121.209 292.296 121.284 292.058 121.373 291.709C125.976 277.865 127.477 262.966 125.31 248.114C138.338 262.719 159.126 269.161 179.019 263.41Z" fill="#FD7351"/>
<rect y="-64" width="350" height="436" fill="url(#paint0_linear_2001_4)"/>
</g>
<defs>
<linearGradient id="paint0_linear_2001_4" x1="175" y1="-64" x2="175" y2="372" gradientUnits="userSpaceOnUse">
<stop stop-color="white" stop-opacity="0"/>
<stop offset="1" stop-color="white"/>
</linearGradient>
</defs>
</svg>
