<svg width="17" height="16" viewBox="0 0 17 16" fill="none" xmlns="http://www.w3.org/2000/svg">
<mask id="mask0_139_301" style="mask-type:luminance" maskUnits="userSpaceOnUse" x="0" y="0" width="14" height="14">
<path d="M0 0H13.1846V13.0311H0V0Z" fill="white"/>
</mask>
<g mask="url(#mask0_139_301)">
<path d="M6.69895 12.3661C6.44533 12.3661 6.19524 12.3525 5.94162 12.322C5.69152 12.2915 5.44143 12.2473 5.19485 12.1863C4.94828 12.1286 4.70875 12.0539 4.47274 11.9657C4.23674 11.8774 4.00425 11.779 3.78234 11.6637C3.5569 11.5483 3.34203 11.4193 3.1342 11.2802C2.92638 11.1377 2.72912 10.985 2.54243 10.8221C2.35221 10.6592 2.17609 10.4827 2.01053 10.2995C1.84497 10.1128 1.69351 9.91939 1.55261 9.71578C1.41171 9.51217 1.28138 9.30177 1.16866 9.08459C1.05594 8.8674 0.953787 8.64343 0.869248 8.41267C0.784708 8.18191 0.714259 7.94776 0.657899 7.71021C0.601539 7.46927 0.562792 7.23173 0.538135 6.98739C0.513478 6.74306 0.50291 6.49873 0.509955 6.25439C0.517 6.01006 0.538134 5.76912 0.573359 5.52818C0.612107 5.28385 0.664945 5.0463 0.731871 4.81215C0.798798 4.5746 0.883337 4.34384 0.978445 4.11987C1.07707 3.8925 1.18627 3.67532 1.31308 3.46153C1.43637 3.24774 1.57374 3.04413 1.72521 2.8473C1.87668 2.65387 2.04223 2.46723 2.21484 2.29076C2.39096 2.11091 2.57765 1.94463 2.77139 1.79192C2.96865 1.63582 3.17295 1.49329 3.38782 1.36433C3.60269 1.23199 3.82461 1.11321 4.05357 1.01141C4.28253 0.906211 4.51854 0.814585 4.75807 0.739928C4.99759 0.661877 5.24417 0.600793 5.49426 0.553284C5.74084 0.505775 5.99093 0.47184 6.24455 0.454872C6.49817 0.437904 6.75179 0.434511 7.00541 0.444692C7.25903 0.458266 7.50912 0.485414 7.75922 0.526136C8.00932 0.570252 8.25589 0.624548 8.49894 0.695812C8.74199 0.767076 8.978 0.851914 9.21048 0.950326C9.44296 1.05213 9.66488 1.16412 9.88327 1.28968C10.1017 1.41524 10.3095 1.55437 10.5103 1.70369C10.7075 1.853 10.8977 2.01589 11.0774 2.18896C11.5107 2.60636 11.8735 3.07467 12.1623 3.59388C12.4512 4.11308 12.6555 4.66283 12.7752 5.23973C12.8915 5.82002 12.9232 6.40371 12.8633 6.99079C12.8034 7.57786 12.6555 8.14119 12.423 8.68754C12.187 9.23051 11.877 9.73275 11.486 10.1875C11.0985 10.6422 10.6512 11.0359 10.1404 11.3616C9.62966 11.6908 9.08367 11.9385 8.49894 12.1116C7.91069 12.2813 7.31186 12.3661 6.69895 12.3661ZM6.69895 1.7512C6.32909 1.7512 5.96275 1.79192 5.60346 1.87336C5.24065 1.95141 4.89544 2.07019 4.56081 2.22968C4.22969 2.38578 3.91972 2.57582 3.63439 2.80319C3.34555 3.03055 3.08841 3.28507 2.86297 3.56673C2.63753 3.84839 2.44732 4.15381 2.29233 4.47958C2.14086 4.80197 2.02814 5.14132 1.95417 5.49085C1.8802 5.84038 1.85202 6.19331 1.86259 6.55302C1.87315 6.90934 1.92599 7.25887 2.02462 7.60501C2.11973 7.94776 2.25358 8.28032 2.42971 8.59592C2.60231 8.90812 2.81013 9.19996 3.05671 9.47145C3.29976 9.73953 3.57099 9.97708 3.87392 10.1841C4.17333 10.3945 4.4974 10.5676 4.83908 10.7033C5.18076 10.839 5.53653 10.9374 5.89935 10.9951C6.26569 11.0528 6.63555 11.0732 7.00541 11.0494C7.37527 11.0257 7.73456 10.9612 8.09033 10.8594C8.4461 10.7542 8.78426 10.6151 9.10481 10.4352C9.42535 10.2553 9.72124 10.045 9.99247 9.80062C10.2602 9.55628 10.4997 9.2882 10.7075 8.98957C10.9118 8.69433 11.0809 8.37873 11.2112 8.04278C11.3416 7.71021 11.4296 7.36407 11.479 7.01115C11.5283 6.65822 11.5318 6.3019 11.4966 5.94558C11.4578 5.59266 11.3803 5.24652 11.2606 4.90717C11.1443 4.56781 10.9858 4.24882 10.7886 3.9468C10.5948 3.64138 10.3659 3.36312 10.1017 3.112C9.65079 2.67763 9.12946 2.34167 8.54121 2.10751C7.95296 1.86997 7.34004 1.75459 6.69895 1.7512Z" fill="#0A213A"/>
</g>
<mask id="mask1_139_301" style="mask-type:luminance" maskUnits="userSpaceOnUse" x="9" y="8" width="8" height="8">
<path d="M9.57812 8.68726H16.225V15.515H9.57812V8.68726Z" fill="white"/>
</mask>
<g mask="url(#mask1_139_301)">
<path d="M15.478 15.515C15.2878 15.515 15.1293 15.4505 14.9954 15.3216L10.1168 10.6216C9.98294 10.4926 9.91602 10.3399 9.91602 10.1601C9.91602 9.9768 9.98294 9.82409 10.1168 9.69514C10.2507 9.56619 10.4092 9.50171 10.5994 9.50171C10.7861 9.50171 10.9446 9.56619 11.0784 9.69514L15.9571 14.3986C16.1684 14.6022 16.2177 14.8397 16.1015 15.1078C15.9888 15.3793 15.7774 15.5116 15.478 15.515Z" fill="#0A213A"/>
</g>
</svg>
