<svg width="704" height="12" viewBox="0 0 704 12" fill="none" xmlns="http://www.w3.org/2000/svg">
<path d="M132.716 8.24188C123.406 8.24188 114.092 8.27319 104.786 8.23582C85.5067 8.15806 66.2231 7.93286 46.9525 7.98437C32.8066 8.02274 18.5529 8.18937 3.55359 9.10532C5.58368 9.2265 6.59656 9.33052 7.63098 9.34062C14.0962 9.40929 20.5657 9.47594 27.0353 9.50725C48.9998 9.6153 70.9643 9.72336 92.9331 9.80515C122.333 9.91422 151.741 9.96774 181.136 10.101C206.109 10.2131 231.069 10.405 256.033 10.5585C258.563 10.5747 261.093 10.5706 263.619 10.5747C283.536 10.604 303.454 10.6181 323.371 10.6666C350.085 10.7322 376.808 10.7635 403.514 10.9221C437.008 11.121 470.489 11.4472 503.979 11.6946C522.137 11.8289 540.309 12.0097 558.476 11.9996C577.911 11.9905 597.371 11.8804 616.767 11.63C633.464 11.4139 650.041 10.8776 666.532 10.2444C676.932 9.84454 687.44 9.5638 697.573 8.90032C699.078 8.80236 700.875 8.78721 702.026 8.59736C703.095 8.42164 704.129 8.049 703.987 7.79249C703.845 7.54003 702.388 7.24817 701.155 7.11689C699.996 6.99369 698.371 7.02701 696.97 7.04822C675.536 7.36027 654.11 7.69858 632.667 7.99447C623.051 8.12676 613.409 8.24491 603.776 8.25703C569.79 8.30046 535.792 8.37115 501.811 8.2843C476.053 8.21866 450.317 7.88843 424.56 7.7521C398.643 7.61476 372.718 7.57638 346.792 7.48549C313.44 7.36835 280.093 7.2512 246.745 7.1179C214.82 6.98965 182.89 6.87856 150.974 6.68265C132.815 6.57055 114.665 6.34939 96.5364 6.09289C72.3953 5.75054 48.4783 5.04364 24.9535 3.83382C20.4149 3.60155 16.0142 3.25112 10.6395 2.89464C12.1437 2.71993 12.6179 2.62097 13.1351 2.61188C28.2378 2.3271 43.319 1.94436 58.4562 1.80803C71.2186 1.6929 84.0456 1.86761 96.8424 1.91204C120.712 1.99586 144.582 2.03727 168.443 2.17562C182.808 2.25843 197.157 2.4806 211.505 2.65833C222.388 2.79365 233.271 2.95321 244.15 3.11176C260.072 3.34302 275.998 3.57529 291.915 3.8217C315.237 4.18323 338.564 4.52961 361.869 4.93659C375.248 5.16987 388.575 5.52837 401.94 5.79902C411.061 5.98382 420.198 6.15247 429.344 6.26557C459.951 6.64629 490.548 7.05933 521.176 7.34209C540.589 7.52185 560.05 7.57739 579.475 7.52387C590.811 7.49155 602.134 7.14012 613.452 6.91391C615.219 6.87856 617.129 6.83918 619.06 6.412C615.905 6.24538 613.426 6.26658 610.858 6.39888C608.586 6.51602 606.28 6.63822 603.957 6.67457C581.523 7.02499 559.106 6.97551 536.684 6.58873C528.814 6.45341 520.888 6.47664 513.009 6.35848C484.01 5.9202 455.003 5.50515 426.038 4.979C405.582 4.60737 385.208 4.04892 364.778 3.61468C352.361 3.3511 339.904 3.16125 327.465 2.94917C297.225 2.43414 266.99 1.92113 236.75 1.41822C223.358 1.19605 209.954 1.01629 196.562 0.79311C171.649 0.378055 146.668 0.478032 121.725 0.319483C106.557 0.223545 91.3901 0.147805 76.2227 0.0276314C59.8872 -0.102641 43.7112 0.249802 27.5267 0.622443C23.6044 0.712321 19.6218 0.705252 15.7255 0.825426C12.0101 0.939541 8.16119 1.05769 4.74756 1.35863C-0.885803 1.85549 -1.54535 2.83304 2.98035 3.69042C4.92419 4.05902 7.32495 4.36905 9.78174 4.56193C14.7902 4.95578 19.9106 5.31024 25.1044 5.57685C47.5516 6.73314 70.3738 7.4047 93.4202 7.73594C106.493 7.92377 119.583 8.06213 132.664 8.2227C132.686 8.22976 132.703 8.23582 132.724 8.24289L132.716 8.24188ZM541.408 10.4383C541.387 10.3525 541.378 10.2657 541.361 10.1798H600.405V10.1899C580.738 10.2727 561.071 10.3555 541.404 10.4383H541.408ZM521.189 10.1869C521.189 10.195 521.168 10.202 521.168 10.2101H514.573C514.573 10.202 514.573 10.195 514.573 10.1869H521.189Z" fill="#FD7351"/>
</svg>
