<svg width="50" height="50" viewBox="0 0 50 50" fill="none" xmlns="http://www.w3.org/2000/svg">
<path fill-rule="evenodd" clip-rule="evenodd" d="M16.591 5.22513C17.0863 2.50096 19.459 0.520813 22.2279 0.520813H31.9397C34.7085 0.520813 37.0812 2.50096 37.5764 5.22513L44.3945 42.7251C45.0341 46.2418 42.3322 49.4791 38.7579 49.4791H15.4095C11.8351 49.4791 9.13336 46.2418 9.77277 42.7251L16.591 5.22513ZM22.2279 3.64581C20.9693 3.64581 19.8908 4.54588 19.6656 5.78415L12.8475 43.2841C12.5568 44.8827 13.7849 46.3541 15.4096 46.3541H38.7579C40.3827 46.3541 41.6106 44.8827 41.32 43.2841L34.5019 5.78415C34.2767 4.5459 33.1984 3.64583 31.9398 3.64583L22.2279 3.64581Z" fill="#5A76FF"/>
<path fill-rule="evenodd" clip-rule="evenodd" d="M12.3819 30.1264C12.9174 27.4485 15.2688 25.5208 17.9998 25.5208H36.168C38.899 25.5208 41.2505 27.4485 41.7859 30.1264L44.2859 42.6264C44.9951 46.1716 42.2834 49.4791 38.668 49.4791H15.4997C11.8843 49.4791 9.17272 46.1716 9.88176 42.6264L12.3819 30.1264ZM17.9998 28.6458C16.7584 28.6458 15.6896 29.5221 15.4462 30.7394L12.9462 43.2394C12.6239 44.8506 13.8564 46.3541 15.4998 46.3541H38.6681C40.3114 46.3541 41.5441 44.8506 41.2218 43.2394L38.7218 30.7394C38.4783 29.5221 37.4096 28.6458 36.1681 28.6458H17.9998Z" fill="#5A76FF"/>
<path fill-rule="evenodd" clip-rule="evenodd" d="M3.1972 7.10825C3.87381 6.57261 4.85649 6.68688 5.39214 7.36346L25.1838 32.3635C25.7194 33.0399 25.6052 34.0226 24.9286 34.5583C24.2519 35.0939 23.2694 34.9797 22.7336 34.303L2.94199 9.30304C2.40635 8.62644 2.52062 7.64388 3.1972 7.10825Z" fill="#5A76FF"/>
<path fill-rule="evenodd" clip-rule="evenodd" d="M27.0837 34.8958C25.6453 34.8958 24.4795 36.0616 24.4795 37.5C24.4795 38.9383 25.6453 40.1041 27.0837 40.1041C28.522 40.1041 29.6878 38.9383 29.6878 37.5C29.6878 36.0616 28.522 34.8958 27.0837 34.8958ZM21.3545 37.5C21.3545 34.3358 23.9195 31.7708 27.0837 31.7708C30.2478 31.7708 32.8128 34.3358 32.8128 37.5C32.8128 40.6641 30.2478 43.2291 27.0837 43.2291C23.9195 43.2291 21.3545 40.6641 21.3545 37.5Z" fill="#5A76FF"/>
<path fill-rule="evenodd" clip-rule="evenodd" d="M27.084 4.6875C27.9469 4.6875 28.6465 5.38706 28.6465 6.25V27.0833C28.6465 27.9463 27.9469 28.6458 27.084 28.6458C26.2211 28.6458 25.5215 27.9463 25.5215 27.0833V6.25C25.5215 5.38706 26.2211 4.6875 27.084 4.6875Z" fill="#5A76FF"/>
<path fill-rule="evenodd" clip-rule="evenodd" d="M32.8128 10.4166C32.8128 11.2796 32.1132 11.9791 31.2503 11.9791H22.917C22.0541 11.9791 21.3545 11.2796 21.3545 10.4166C21.3545 9.55369 22.0541 8.85413 22.917 8.85413H31.2503C32.1132 8.85413 32.8128 9.55369 32.8128 10.4166Z" fill="#5A76FF"/>
<path fill-rule="evenodd" clip-rule="evenodd" d="M32.8128 18.75C32.8128 19.6129 32.1132 20.3125 31.2503 20.3125H22.917C22.0541 20.3125 21.3545 19.6129 21.3545 18.75C21.3545 17.8871 22.0541 17.1875 22.917 17.1875H31.2503C32.1132 17.1875 32.8128 17.8871 32.8128 18.75Z" fill="#5A76FF"/>
</svg>
