<svg width="808" height="512" viewBox="0 0 808 512" fill="none" xmlns="http://www.w3.org/2000/svg">
<mask id="mask0_2012_45" style="mask-type:alpha" maskUnits="userSpaceOnUse" x="0" y="0" width="808" height="512">
<rect width="808" height="512" fill="#D9D9D9"/>
</mask>
<g mask="url(#mask0_2012_45)">
<rect x="-649" y="10" width="1454" height="560" fill="#FBF4F2"/>
<rect width="808" height="512" fill="#FD7351"/>
<mask id="mask1_2012_45" style="mask-type:luminance" maskUnits="userSpaceOnUse" x="0" y="0" width="817" height="512">
<path d="M817 0H0V512H817V0Z" fill="white"/>
</mask>
<g mask="url(#mask1_2012_45)">
<path d="M1457.88 77.0457L1516.07 94.254C1093.55 400.686 536.229 236.979 788.307 744.023L731.615 727.26C591.05 444.508 717.383 349.931 974.068 290.985C1146.01 252.385 1309.4 184.74 1457.89 77.0457H1457.88Z" fill="#FF886B"/>
<path d="M1342.09 42.8031L1399.88 59.8937C1266.25 156.82 1122.97 243.901 928.152 277.253C651.336 325.57 548.623 456.084 675.136 710.559L618.844 693.908C506.401 467.707 585.494 301.256 882.449 263.578C1100.13 235.484 1223.3 128.962 1342.09 42.8031Z" fill="#FF886B"/>
<path d="M1227.08 8.79102L1284.5 25.7741C1180.56 101.161 1077.49 227.123 836.943 249.974C519.849 277.012 464.366 479.396 562.766 677.325L506.858 660.792C422.511 491.141 454.391 252.815 791.616 236.411C1055.02 218.813 1138 73.4054 1227.09 8.79102H1227.08Z" fill="#FF886B"/>
<path d="M1112.73 -25.0264L1169.84 -8.13549C1095.59 45.7167 1032.74 210.56 746.444 222.899C389.088 228.67 380.828 502.933 451.107 644.306L395.502 627.861C339.284 514.76 323.924 204.565 701.427 209.429C1010.58 202.343 1053.33 18.0533 1112.73 -25.0264Z" fill="#FF886B"/>
<path d="M987.941 -61.9316L1052.03 -42.9774C1007.48 -10.6702 984.836 193.06 652.823 194.903C255.19 179.394 294.152 525.532 336.326 610.365L273.727 591.851C245.614 535.306 183.048 153.226 600.813 179.369C955.694 182.789 958.243 -40.3918 987.941 -61.9265V-61.9316Z" fill="#FF886B"/>
<path d="M858.046 -100.347L923.185 -81.0803C908.34 -70.3078 925.898 172.303 548.149 163.635C110.254 126.863 196.431 544.876 210.483 573.148L146.839 554.327C146.839 554.327 37.0423 100.378 495.077 147.794C895.709 161.715 858.038 -100.347 858.038 -100.347H858.046Z" fill="#FF886B"/>
<path d="M753.323 -131.318L805.089 -116.009C805.089 -116.009 825.914 44.5695 647.734 108.109C598.437 125.681 534.482 137.277 453.231 137.595C312.111 128.758 228.466 168.479 186.93 225.362C101.006 343.004 125.271 547.947 125.271 547.947L104.862 541.911C104.862 541.911 106.529 339.389 169.144 224.23C199.961 167.537 278.507 125.414 412.561 127.744C489.841 124.155 552.366 110.51 600.814 92.1752C771.624 27.5096 753.315 -131.318 753.315 -131.318H753.323Z" fill="#FF886B"/>
<path d="M652.62 -161.096L702.53 -146.335C702.53 -146.335 718.38 10.8289 554.882 76.5339C507.283 95.6571 446.18 111.319 372.879 118.185C245.876 122.353 172.354 166.661 152.329 223.391C112.729 335.652 85.4498 536.172 85.4498 536.172L66.9121 530.688C66.9121 530.688 119.233 331.832 136.414 222.812C145.385 165.868 214.119 119.557 334.071 108.887C403.402 98.7444 463.092 81.0804 509.824 61.1483C666.059 -5.49365 652.62 -161.096 652.62 -161.096Z" fill="#FF886B"/>
<path d="M555.151 -189.921L603.518 -175.616C603.518 -175.616 614.596 -21.4939 465.575 46.0031C419.733 66.7698 361.432 86.405 296.064 99.8297C183.171 117.002 118.865 165.202 121.3 222.469C125.777 328.059 49.1831 525.445 49.1831 525.445L32.1895 520.417C32.1895 520.417 132.239 324.505 106.912 222.336C92.6393 164.762 152.975 114.657 258.801 90.9823C320.206 74.2809 377.119 52.7001 422.062 31.0681C563.95 -37.1867 555.151 -189.927 555.151 -189.927V-189.921Z" fill="#FF886B"/>
<path d="M451.605 -220.544L507.439 -204.032C507.439 -204.032 514.032 -52.6028 379.194 16.338C335.158 38.8506 279.602 62.3565 222.183 82.3347C123.408 112.507 66.6429 164.644 93.1709 222.408C138.645 321.372 15.8418 515.584 15.8418 515.584L-8.61914 508.349C-8.61914 508.349 136.431 316.175 71.3243 220.073C32.2064 162.33 85.728 107.955 177.444 71.2858C230.909 48.0359 285.133 22.6304 328.214 -0.798676C456.099 -70.3436 451.605 -220.544 451.605 -220.544Z" fill="#FF886B"/>
</g>
</g>
</svg>
