<svg width="13" height="21" viewBox="0 0 13 21" fill="none" xmlns="http://www.w3.org/2000/svg">
<path d="M4.06876 20.9502C4.34688 21.0689 4.67026 20.9698 4.83271 20.7135L12.2242 8.98299C12.3439 8.79312 12.3511 8.55339 12.2428 8.35754C12.1346 8.16107 11.9276 8.03909 11.7033 8.03909H6.77018L8.60483 0.766653C8.67883 0.472858 8.52903 0.169425 8.25053 0.0498642C7.97384 -0.0690811 7.64841 0.0306279 7.48658 0.286565L0.0950916 12.017C-0.0246095 12.2069 -0.0318368 12.4466 0.0764485 12.6425C0.184734 12.8389 0.391654 12.9609 0.616027 12.9609H5.54911L3.71446 20.2334C3.64046 20.5272 3.79022 20.8306 4.06876 20.9502Z" fill="#FD7351"/>
</svg>
