<svg width="219" height="12" viewBox="0 0 219 12" fill="none" xmlns="http://www.w3.org/2000/svg">
<path d="M177.715 8.24188C180.611 8.24188 183.508 8.27319 186.403 8.23582C192.401 8.15806 198.399 7.93286 204.394 7.98437C208.795 8.02274 213.229 8.18937 217.895 9.10532C217.263 9.2265 216.948 9.33052 216.626 9.34062C214.615 9.40929 212.602 9.47594 210.59 9.50725C203.757 9.6153 196.924 9.72336 190.09 9.80515C180.945 9.91422 171.797 9.96774 162.652 10.101C154.884 10.2131 147.119 10.405 139.353 10.5585C138.566 10.5747 137.779 10.5706 136.993 10.5747C130.798 10.604 124.602 10.6181 118.406 10.6666C110.096 10.7322 101.783 10.7635 93.4752 10.9221C83.0558 11.121 72.6405 11.4472 62.2225 11.6946C56.5737 11.8289 50.9209 12.0097 45.2694 11.9996C39.2238 11.9905 33.1701 11.8804 27.1365 11.63C21.9422 11.4139 16.7855 10.8776 11.6556 10.2444C8.42028 9.84454 5.15142 9.5638 1.9992 8.90032C1.53126 8.80236 0.97215 8.78721 0.614157 8.59736C0.281639 8.42164 -0.0401529 8.049 0.00409346 7.79249C0.0483398 7.54003 0.50153 7.24817 0.884998 7.11689C1.24567 6.99369 1.75115 7.02701 2.18691 7.04822C8.8547 7.36027 15.5198 7.69858 22.1903 7.99447C25.1816 8.12676 28.181 8.24491 31.1777 8.25703C41.7498 8.30046 52.3261 8.37115 62.8969 8.2843C70.9095 8.21866 78.9154 7.88843 86.9281 7.7521C94.9903 7.61476 103.055 7.57638 111.12 7.48549C121.495 7.36835 131.869 7.2512 142.243 7.1179C152.174 6.98965 162.107 6.87856 172.035 6.68265C177.684 6.57055 183.33 6.34939 188.969 6.09289C196.479 5.75054 203.919 5.04364 211.237 3.83382C212.649 3.60155 214.018 3.25112 215.69 2.89464C215.222 2.71993 215.075 2.62097 214.914 2.61188C210.216 2.3271 205.524 1.94436 200.815 1.80803C196.845 1.6929 192.855 1.86761 188.874 1.91204C181.449 1.99586 174.024 2.03727 166.601 2.17562C162.132 2.25843 157.669 2.4806 153.205 2.65833C149.82 2.79365 146.434 2.95321 143.05 3.11176C138.097 3.34302 133.143 3.57529 128.191 3.8217C120.936 4.18323 113.68 4.52961 106.43 4.93659C102.268 5.16987 98.1224 5.52837 93.9646 5.79902C91.1274 5.98382 88.2849 6.15247 85.4398 6.26557C75.9188 6.64629 66.4004 7.05933 56.8727 7.34209C50.8338 7.52185 44.7801 7.57739 38.7371 7.52387C35.2108 7.49155 31.6885 7.14012 28.1676 6.91391C27.6178 6.87856 27.0239 6.83918 26.4232 6.412C27.4046 6.24538 28.1756 6.26658 28.9747 6.39888C29.6813 6.51602 30.3987 6.63822 31.1213 6.67457C38.1002 7.02499 45.0737 6.97551 52.0485 6.58873C54.4968 6.45341 56.9625 6.47664 59.4135 6.35848C68.4344 5.9202 77.458 5.50515 86.4682 4.979C92.8316 4.60737 99.1695 4.04892 105.525 3.61468C109.388 3.3511 113.263 3.16125 117.132 2.94917C126.539 2.43414 135.945 1.92113 145.352 1.41822C149.518 1.19605 153.688 1.01629 157.854 0.79311C165.603 0.378055 173.375 0.478032 181.134 0.319483C185.852 0.223545 190.57 0.147805 195.289 0.0276314C200.37 -0.102641 205.402 0.249802 210.437 0.622443C211.657 0.712321 212.896 0.705252 214.108 0.825426C215.264 0.939541 216.461 1.05769 217.523 1.35863C219.276 1.85549 219.481 2.83304 218.073 3.69042C217.468 4.05902 216.721 4.36905 215.957 4.56193C214.399 4.95578 212.806 5.31024 211.191 5.57685C204.208 6.73314 197.108 7.4047 189.939 7.73594C185.872 7.92377 181.8 8.06213 177.731 8.2227C177.724 8.22976 177.719 8.23582 177.712 8.24289L177.715 8.24188ZM50.579 10.4383C50.5857 10.3525 50.5884 10.2657 50.5938 10.1798H32.2262V10.1899C38.3442 10.2727 44.4623 10.3555 50.5803 10.4383H50.579ZM56.8687 10.1869C56.8687 10.195 56.8754 10.202 56.8754 10.2101H58.9268C58.9268 10.202 58.9268 10.195 58.9268 10.1869H56.8687Z" fill="#0A213A"/>
</svg>
